<?xml version="1.0" encoding="iso-8859-1"?>
<!-- Generator: Adobe Illustrator 19.0.0, SVG Export Plug-In . SVG Version: 6.00 Build 0)  -->
<svg version="1.1" id="Capa_1" xmlns="http://www.w3.org/2000/svg" xmlns:xlink="http://www.w3.org/1999/xlink" x="0px" y="0px"
	 viewBox="0 0 512 512" style="enable-background:new 0 0 512 512;" xml:space="preserve">
<g>
	<g>
		<path d="M350.679,196.62c-1.86-1.86-4.439-2.93-7.07-2.93c-2.63,0-5.21,1.07-7.069,2.93c-1.86,1.86-2.931,4.44-2.931,7.07
			s1.07,5.21,2.931,7.07c1.859,1.86,4.439,2.93,7.069,2.93c2.631,0,5.21-1.07,7.07-2.93c1.87-1.86,2.93-4.44,2.93-7.07
			S352.549,198.48,350.679,196.62z"/>
	</g>
</g>
<g>
	<g>
		<path d="M454.586,172.669c-16.045-21.343-38.366-37.771-63.367-46.757C380.559,59.963,323.529,11,256,11
			c-53.255,0-101.135,30.487-123.781,78.224C58.882,91.751,0,152.2,0,226.142c0,69.25,51.821,127.279,119.558,135.889
			c4.179,41.842,39.591,74.624,82.515,74.624c15.688,0,30.878-4.467,43.928-12.627V481H131.572
			c3.955-6.403,6.245-13.938,6.245-22.001c0-18.805-12.426-34.762-29.499-40.092c2.604-3.837,7.001-6.364,11.979-6.364
			c5.522,0,10-4.477,10-10s-4.478-10-10-10c-15.867,0-29.256,10.78-33.248,25.398c-18.95,4.049-33.207,20.917-33.207,41.058
			c0,8.063,2.289,15.598,6.244,22.001H10c-5.522,0-10,4.477-10,10s4.478,10,10,10h289.394c5.522,0,10-4.477,10-10s-4.478-10-10-10
			H266v-64.258c8.344,2.829,17.134,4.312,26.004,4.312c24.15,0,47.156-10.935,62.479-29.475c33.8-2.305,65.232-16.886,88.947-41.368
			c24.881-25.686,38.583-59.531,38.583-95.3C482.013,224.974,472.529,196.536,454.586,172.669z M95.828,480.987
			c-12.124,0-21.987-9.864-21.987-21.988c0-12.124,9.863-21.988,21.987-21.988s21.988,9.864,21.988,21.988
			C117.816,471.123,107.952,480.987,95.828,480.987z M349.061,371.833c-3.074,0.104-5.929,1.618-7.741,4.104
			c-11.466,15.728-29.901,25.118-49.315,25.118c-9.006,0-17.904-2.01-26.004-5.833v-99.775l65.724-65.723
			c3.905-3.905,3.905-10.237,0-14.142c-3.905-3.905-10.235-3.905-14.143,0L266,267.161v-81.992c0-5.523-4.478-10-10-10
			c-5.522,0-10,4.477-10,10v122.688l-80.929-80.929c-3.906-3.905-10.236-3.905-14.143,0c-3.905,3.905-3.905,10.237,0,14.143l94,94
			c0.338,0.338,0.7,0.636,1.071,0.916v62.739c-11.72,11.438-27.461,17.929-43.928,17.929c-34.698,0-62.927-28.229-62.927-62.887
			l0.005-0.153c0.007-0.193,0.013-0.387,0.016-0.581c0.075-5.34-4.061-9.797-9.392-10.122C68.219,339.166,20,287.874,20,226.142
			c0-64.514,52.486-117,117-117c0.344,0,0.687,0.006,1.029,0.012l0.572,0.009c4.126,0.054,7.792-2.38,9.364-6.151
			C166.205,59.266,208.611,31,256,31c59.521,0,109.487,44.526,116.229,103.572c0.452,3.956,3.207,7.267,7.014,8.43
			c49.508,15.123,82.771,60.096,82.771,111.909C462.013,318.324,412.398,369.682,349.061,371.833z"/>
	</g>
</g>
<g>
	<g>
		<path d="M502,481h-50.244c3.955-6.402,6.244-13.938,6.244-22c0-18.805-12.426-34.762-29.499-40.092
			c2.604-3.837,7.001-6.364,11.979-6.364c5.522,0,10-4.477,10-10s-4.478-10-10-10c-15.867,0-29.256,10.78-33.248,25.398
			c-18.951,4.049-33.208,20.917-33.208,41.058c0,8.063,2.289,15.598,6.244,22H368c-5.522,0-10,4.477-10,10s4.478,10,10,10h134
			c5.522,0,10-4.477,10-10S507.522,481,502,481z M416.012,480.987c-12.124,0-21.988-9.864-21.988-21.988
			c0-12.124,9.864-21.988,21.988-21.988c12.124,0,21.988,9.864,21.988,21.988C438,471.123,428.136,480.987,416.012,480.987z"/>
	</g>
</g>
<g>
	<g>
		<path d="M333.472,481h-0.13c-5.522,0-10,4.477-10,10s4.478,10,10,10h0.13c5.522,0,10-4.477,10-10S338.994,481,333.472,481z"/>
	</g>
</g>
<g>
	<g>
		<path d="M362.311,315.25c-3.823-3.964-10.134-4.092-14.114-0.281c-3.989,3.819-4.127,10.149-0.307,14.139l0.247,0.253
			c1.946,1.968,4.498,2.948,7.055,2.948c2.54,0,5.085-0.969,7.042-2.901C366.158,325.536,366.171,319.183,362.311,315.25z"/>
	</g>
</g>
<g>
	<g>
		<path d="M406.969,269.428c-7.933-7.932-18.483-12.302-29.7-12.301c-20.678,0-38.54,15.408-41.55,35.84
			c-0.805,5.464,2.973,10.545,8.437,11.35c5.457,0.81,10.545-2.972,11.351-8.436c1.574-10.692,10.931-18.754,21.763-18.754
			c5.876,0,11.401,2.288,15.557,6.443c4.155,4.155,6.443,9.679,6.443,15.555c0,10.785-7.702,19.908-18.314,21.692
			c-5.446,0.916-9.119,6.073-8.203,11.52c0.821,4.886,5.055,8.344,9.85,8.344c0.55,0,1.108-0.045,1.67-0.14
			c20.279-3.409,34.998-20.827,34.998-41.416C419.271,287.907,414.902,277.36,406.969,269.428z"/>
	</g>
</g>
<g>
	<g>
		<path d="M224.819,344.26c-0.016,0-0.031,0-0.048,0c-5.482-0.001-9.947,4.453-9.999,9.941l-0.001,0.059
			c-0.085,5.522,4.323,10.068,9.845,10.153c0.053,0,0.105,0.001,0.157,0.001c5.451,0,9.912-4.376,9.996-9.846l0.003-0.345
			C234.772,348.719,230.324,344.285,224.819,344.26z"/>
	</g>
</g>
<g>
	<g>
		<path d="M219.879,374.802c-3.293-4.432-9.556-5.355-13.991-2.061c-8.673,6.447-20.99,5.532-28.65-2.128
			c-4.154-4.155-6.443-9.679-6.443-15.556c0-5.876,2.288-11.401,6.441-15.555c7.628-7.626,19.524-8.63,28.29-2.389
			c4.5,3.204,10.743,2.154,13.946-2.345c3.204-4.499,2.154-10.743-2.345-13.946c-16.752-11.93-39.474-10.02-54.033,4.538
			c-7.932,7.933-12.3,18.479-12.3,29.698s4.369,21.766,12.302,29.697c8.092,8.093,18.912,12.239,29.771,12.239
			c8.762,0,17.55-2.699,24.952-8.201C222.251,385.499,223.173,379.234,219.879,374.802z"/>
	</g>
</g>
<g>
	<g>
		<path d="M180.102,178.103c-3.84-3.965-10.168-4.067-14.137-0.228c-3.969,3.841-4.072,10.171-0.231,14.14l0.248,0.253
			c1.95,1.95,4.502,2.923,7.055,2.923c2.561,0,5.121-0.979,7.077-2.935C184.019,188.351,184.008,182.008,180.102,178.103z"/>
	</g>
</g>
<g>
	<g>
		<path d="M195.075,119.996c-20.678,0-38.541,15.408-41.551,35.84c-0.805,5.464,2.973,10.545,8.437,11.35
			c5.461,0.806,10.545-2.972,11.351-8.436c1.574-10.692,10.931-18.754,21.764-18.754c12.13,0,21.999,9.868,22,21.998
			c-0.001,10.785-7.703,19.908-18.314,21.693c-5.446,0.916-9.119,6.073-8.203,11.52c0.821,4.885,5.055,8.343,9.85,8.343
			c0.551,0,1.108-0.045,1.67-0.14c20.278-3.41,34.997-20.827,34.998-41.416C237.074,138.835,218.232,119.995,195.075,119.996z"/>
	</g>
</g>
<g>
	<g>
		<path d="M275.181,123.319c-0.009-0.01-0.074-0.075-0.083-0.086c-3.878-3.92-10.171-3.934-14.1-0.064s-3.957,10.216-0.096,14.153
			l0.148,0.151c1.942,1.942,4.475,2.908,7.012,2.908c2.546,0,5.097-0.974,7.056-2.915
			C279.029,133.593,279.035,127.248,275.181,123.319z"/>
	</g>
</g>
<g>
	<g>
		<path d="M290.145,65.2c-20.678,0-38.541,15.408-41.551,35.84c-0.805,5.464,2.973,10.545,8.437,11.35
			c5.464,0.808,10.545-2.972,11.351-8.436c1.574-10.692,10.931-18.754,21.764-18.754c12.13,0,21.999,9.868,22,21.998
			c0,10.785-7.702,19.908-18.314,21.692c-5.446,0.916-9.119,6.073-8.203,11.52c0.821,4.885,5.055,8.344,9.85,8.344
			c0.551,0,1.108-0.045,1.67-0.14c20.279-3.41,34.998-20.827,34.998-41.416C332.144,84.04,313.302,65.2,290.145,65.2z"/>
	</g>
</g>
<g>
	<g>
		<path d="M126.314,249.837c-3.906-3.906-10.249-3.896-14.153,0.01c-3.967,3.841-4.068,10.171-0.228,14.139
			c1.962,2.026,4.571,3.044,7.186,3.044c2.505,0,5.013-0.936,6.954-2.815l0.252-0.247
			C130.23,260.063,130.22,253.742,126.314,249.837z"/>
	</g>
</g>
<g>
	<g>
		<path d="M137.466,227.87c-3.409-20.277-20.827-34.995-41.415-34.996c-11.219,0-21.765,4.369-29.697,12.302
			c-7.932,7.933-12.302,18.48-12.301,29.697c-0.001,20.679,15.406,38.542,35.84,41.551c0.494,0.073,0.984,0.108,1.47,0.108
			c4.878,0,9.148-3.575,9.881-8.544c0.805-5.464-2.973-10.545-8.437-11.35c-10.692-1.575-18.755-10.931-18.754-21.765
			c0-5.876,2.288-11.4,6.443-15.556c4.154-4.155,9.679-6.444,15.555-6.444c10.785,0,19.908,7.703,21.692,18.314
			c0.916,5.447,6.074,9.122,11.52,8.203C134.709,238.474,138.382,233.317,137.466,227.87z"/>
	</g>
</g>
<g>
</g>
<g>
</g>
<g>
</g>
<g>
</g>
<g>
</g>
<g>
</g>
<g>
</g>
<g>
</g>
<g>
</g>
<g>
</g>
<g>
</g>
<g>
</g>
<g>
</g>
<g>
</g>
<g>
</g>
</svg>
