<svg xmlns="http://www.w3.org/2000/svg" style="display: none;"><symbol id="stall" viewBox="0 0 512 512"><title>stall</title><g> <g> <path d="M475.994,103.001c0-1.138-0.183-2.293-0.595-3.424l-33.879-93C440.081,2.628,436.327,0,432.124,0H79.876 c-4.203,0-7.958,2.628-9.396,6.577l-33.879,93c-0.412,1.13-0.595,2.284-0.595,3.421c-0.003,0.001-0.006,0.001-0.009,0.002 c0,0.129,0.009,0.256,0.01,0.385c0.002,0.052,0.001,0.104,0.004,0.156C36.303,128.105,56.365,148,80.998,148 c14.125,0,26.744-6.547,35-16.76c8.256,10.213,20.875,16.76,35,16.76s26.744-6.547,35-16.76c8.256,10.213,20.875,16.76,35,16.76 s26.744-6.547,35-16.76c8.256,10.213,20.875,16.76,35,16.76s26.744-6.547,35-16.76c8.256,10.213,20.875,16.76,35,16.76 s26.744-6.547,35-16.76c8.256,10.213,20.875,16.76,35,16.76c24.632,0,44.694-19.895,44.987-44.459 c0.007-0.052,0.006-0.104,0.008-0.156c0.001-0.129,0.01-0.256,0.01-0.385C476,103,475.997,103,475.994,103.001z M80.998,128 c-10.222,0-19.027-6.17-22.897-14.979h45.794C100.024,121.83,91.22,128,80.998,128z M105.998,93.021H60.275L86.876,20h19.122 V93.021z M150.999,128c-10.222,0-19.027-6.17-22.897-14.979h45.794C170.025,121.83,161.221,128,150.999,128z M175.999,93.021 h-50.001V20h50.001V93.021z M221,128c-10.222,0-19.027-6.17-22.897-14.979h45.794C240.026,121.83,231.222,128,221,128z M246,93.021h-50.001V20H246V93.021z M291,128c-10.222,0-19.027-6.17-22.897-14.979h45.794C310.027,121.83,301.223,128,291,128z M316.001,93.021H266V20h50.001V93.021z M361.001,128c-10.222,0-19.027-6.17-22.897-14.979h45.794 C380.028,121.83,371.224,128,361.001,128z M386.002,93.021h-50.001V20h50.001V93.021z M406.002,20h19.122l26.601,73.021h-45.723 V20z M431.002,128c-10.222,0-19.027-6.17-22.897-14.979H453.9C450.029,121.83,441.225,128,431.002,128z" fill="#008080"/> </g> </g><g> <g> <path d="M221.965,288h-0.131c-5.523,0-10,4.477-10,10s4.477,10,10,10h0.131c5.523,0,10-4.477,10-10S227.488,288,221.965,288z" fill="#008080"/> </g> </g><g> <g> <path d="M64,163.141c-5.523,0-10,4.477-10,10v0.131c0,5.523,4.477,10,10,10s10-4.477,10-10v-0.131 C74,167.618,69.523,163.141,64,163.141z" fill="#008080"/> </g> </g><g> <g> <path d="M448,163.141c-5.523,0-10,4.477-10,10v0.131c0,5.523,4.477,10,10,10s10-4.477,10-10v-0.131 C458,167.618,453.523,163.141,448,163.141z" fill="#008080"/> </g> </g><g> <g> <path d="M448,195.624c-5.523,0-10,4.477-10,10V320h-6.018c1.939-4.273,3.029-9.01,3.029-14c0-15.686-10.68-28.918-25.149-32.824 c0.746-2.796,1.149-5.729,1.149-8.757c0-18.748-15.252-34-34-34c-9.359,0-17.846,3.802-24,9.941 c-6.154-6.139-14.641-9.941-24-9.941c-18.748,0-34,15.252-34,34c0,3.027,0.403,5.961,1.149,8.757 c-14.469,3.906-25.149,17.138-25.149,32.824c0,4.99,1.089,9.727,3.029,14H266v-54c0-5.523-4.477-10-10-10h-6v-18 c0-10.37-5.29-19.526-13.311-24.916c0.213-0.019,0.427-0.03,0.644-0.03c5.522,0,10-4.477,10-10c0-5.523-4.477-10-10-10 c-10.848,0-20.507,6.475-24.942,15.926c-4.67,1.226-8.898,3.552-12.391,6.683c-1.001-0.897-2.061-1.731-3.176-2.489 c0.432-0.078,0.875-0.12,1.325-0.12c5.522,0,10-4.477,10-10c0-5.523-4.477-10-10-10c-0.001,0,0,0-0.001,0 c-10.762,0-20.355,6.375-24.836,15.707c-5.034,1.151-9.591,3.567-13.312,6.903c-0.941-0.844-1.937-1.627-2.979-2.348 c0.623-0.169,1.274-0.261,1.943-0.261c5.522,0,10-4.477,10-10s-4.477-10-10-10c-0.001,0,0,0-0.001,0 c-10.687,0-20.222,6.285-24.743,15.51C120.436,211.266,110,223.435,110,238v18h-6c-5.523,0-10,4.477-10,10v54H74V205.624 c0-5.523-4.477-10-10-10s-10,4.477-10,10V329.99c0,0.003,0,0.006,0,0.01v172c0,5.523,4.477,10,10,10h384c5.523,0,10-4.477,10-10 V336.01c0-0.003,0-0.006,0-0.01V205.624C458,200.101,453.523,195.624,448,195.624z M401.011,292c7.72,0,14,6.28,14,14 c0,7.72-6.28,14-14,14c-7.72,0-14-6.28-14-14C387.011,298.28,393.291,292,401.011,292z M377.011,250.419c7.72,0,14,6.28,14,14 c0,7.72-6.28,14-14,14c-7.72,0-14-6.28-14-14C363.011,256.699,369.292,250.419,377.011,250.419z M353.011,292 c7.72,0,14,6.28,14,14c0,7.72-6.28,14-14,14c-7.72,0-14-6.28-14-14C339.011,298.28,345.291,292,353.011,292z M329.011,250.419 c7.72,0,14,6.28,14,14c0,7.72-6.28,14-14,14c-7.72,0-14-6.28-14-14C315.011,256.699,321.292,250.419,329.011,250.419z M305.011,292c7.72,0,14,6.28,14,14c0,7.72-6.28,14-14,14c-7.72,0-14-6.28-14-14C291.011,298.28,297.291,292,305.011,292z M210.001,238c-0.001-5.513,4.482-9.997,9.995-10c0.006,0,0.011,0.001,0.017,0.001c0.003,0,0.006,0,0.009,0 c5.504,0.012,9.979,4.492,9.979,9.999v18h-20V238z M170,238c0-5.514,4.486-10,10-10c5.514,0,10,4.486,10,10v18h-20V238z M130,238 c0-5.514,4.486-10,10-10c5.514,0,10,4.486,10,10v18h-20V238z M114,308h75.483c5.523,0,10-4.477,10-10s-4.477-10-10-10H114v-12h132 v44H114V308z M438,492H74V340h30h152h182V492z" fill="#008080"/> </g> </g><g> <g> <path d="M365.1,386.734c-9.281-9.284-23.264-11.757-34.991-6.923c-15.937-11.351-37.318-11.067-51.634,1.211 c-7.707-7.568-18.138-11.965-29.376-11.965c-0.568,0-1.132,0.021-1.695,0.043c-5.535-10.599-16.813-17.645-29.218-17.342 c-5.521,0.128-9.893,4.708-9.765,10.229c0.128,5.521,4.706,9.884,10.229,9.765c3.294-0.069,6.388,1.235,8.656,3.413 c-9.639,5.874-16.73,15.524-19.223,26.876c-18.839,4.138-32.985,20.952-32.985,41.015c0,23.159,18.841,42,42,42 c8.482,0,16.379-2.535,22.989-6.876c0.364,0.438,0.742,0.866,1.15,1.274c3.756,3.757,8.773,5.645,15.221,5.645 c9.372,0,21.765-3.991,37.689-12.032c16.825-8.496,35.934-21.08,43.502-28.649c12.331-12.331,14.685-31.078,7.354-46.773 c2.198,0.479,4.28,1.556,5.955,3.231c1.953,1.953,4.512,2.929,7.071,2.929s5.118-0.977,7.071-2.929 C369.005,396.971,369.006,390.639,365.1,386.734z M238.483,448.216c-0.256,0.813-0.5,1.615-0.722,2.4 c-3.09,8.418-11.186,14.44-20.661,14.44c-12.131,0-22-9.869-22-22c0-12.131,9.869-22,22-22c12.131,0,22,9.869,22,22 C239.1,444.833,238.883,446.56,238.483,448.216z M228.748,402.712c3.294-8.004,11.174-13.656,20.352-13.656 c6.435,0,12.366,2.753,16.48,7.421c-4.664,6.694-9.631,14.685-14.012,22.622C246.125,411.293,238.105,405.418,228.748,402.712z M323.508,430.275c-4.046,4.046-15.094,11.905-27.704,19.163l-7.637-7.637c-3.905-3.905-10.237-3.905-14.143,0 c-3.905,3.905-3.905,10.237,0,14.143l3.076,3.076c-12.221,5.391-18.911,6.296-21.461,6.033c-0.156-1.509,0.106-4.483,1.45-9.173 c0.153-0.476,0.293-0.958,0.429-1.442c1.643-5.276,4.556-12.477,9.558-21.977c5.478-10.405,11.893-20.489,16.992-27.483 l7.294,7.294c1.953,1.953,4.512,2.929,7.071,2.929c2.559,0,5.119-0.977,7.071-2.929c3.905-3.905,3.906-10.237,0-14.142 l-6.018-6.018c7.433-1.823,16.05,0.498,22.322,6.77C330.933,408.006,331.695,422.089,323.508,430.275z" fill="#008080"/> </g> </g></symbol><symbol id="farmer" viewBox="0 0 430.142 430.142"><title>farmer</title><path id="XMLID_57_" d="M378.017,414.142h-36.253v-11.07c0-14.546-11.534-26.443-25.935-27.04 c4.106-22.375,6.284-47.244,6.331-72.61c0.802-3.76,1.537-7.584,2.22-11.456c0.623,0.273,3.957,1.462,5.004,1.462 c3.108,0,6.065-1.822,7.362-4.862c1.282-3.003,0.58-6.35-1.51-8.594c14.738-9.406,26.047-21.515,34.314-36.738 c0.789-1.453,1.109-3.115,0.914-4.758l-3.405-28.761l2.366-1.61c2.8-1.904,4.097-5.366,3.239-8.642l-11.702-44.664 c-5.196-19.837-25.108-35.377-45.332-35.377h-20.571c-4.418,0-8,3.582-8,8v41.586H225.39v-22.361 c9.796,7.534,20.38,11.459,31.264,11.459c4.418,0,8-3.582,8-8s-3.582-8-8-8c-14.359,0-25.874-10.692-33.004-19.662 c-0.007-0.009-2.265-3.001-6.259-3.021h-0.002c0,0-0.001,0-0.001,0h-19.851c-20.223,0-40.136,15.539-45.333,35.377l-11.701,44.664 c-0.868,3.313,0.469,6.81,3.325,8.699l3.202,2.118c-3.688,8.88-8.819,17.92-15.06,26.431c-3.318,4.523-6.881,8.781-10.594,12.733 l-16.491-84.935l9.173-1.724c5.421-1.017,10.109-4.084,13.202-8.637c3.053-4.493,4.167-9.884,3.14-15.179L118.78,79.13 c-0.842-4.338-5.041-7.165-9.378-6.329c-4.337,0.842-7.17,5.041-6.329,9.378l11.618,59.84c0.283,1.459-0.296,2.593-0.667,3.139 c-0.681,1.001-1.717,1.678-2.921,1.903l-9.269,1.742L89.38,84.654c-0.842-4.338-5.04-7.167-9.378-6.329 c-4.337,0.842-7.171,5.041-6.329,9.378l12.435,64.054l-9.171,1.723c-2.438,0.454-4.885-1.128-5.338-3.464L59.98,90.178 c-0.842-4.339-5.042-7.166-9.378-6.329c-4.337,0.843-7.17,5.041-6.329,9.378l11.619,59.839c1.885,9.713,10.52,16.498,20.169,16.497 c1.264,0,2.545-0.116,3.831-0.357l9.267-1.741l18.371,94.615c-0.456,0.351-0.909,0.721-1.366,1.061 c-3.548,2.634-4.289,7.645-1.656,11.191c1.483,1.998,3.72,3.093,6.024,3.21l4.714,24.281c-16.51,4.039-28.436,11.355-28.436,22.39 c0,0.047,0.317,3.06,0.535,3.852l16.993,86.078H60.873c-4.418,0-8,3.582-8,8s3.582,8,8,8h317.144c4.418,0,8-3.582,8-8 S382.435,414.142,378.017,414.142z M303.059,135.422h12.571c12.856,0,26.528,10.73,29.854,23.432l10.27,39.199l-12.738,8.666 c-3.653,2.485-4.6,7.461-2.115,11.114c1.548,2.275,4.063,3.501,6.622,3.501c1.549,0,3.115-0.449,4.493-1.387l0.131-0.089 l2.121,17.917c-6.604,11.426-15.141,20.498-26.239,27.829c1.464-14.271,2.208-29.126,2.208-44.47v-23.75 c0-15.138-12.057-27.544-27.179-28.335V135.422z M170.685,403.071v11.07h-50.039l-13.825-70.031 c12.014,4.3,28.016,6.331,43.947,6.331c7.593,0,14.995-0.468,22.001-1.391c4.38-0.577,7.463-4.596,6.887-8.977 c-0.577-4.38-4.599-7.463-8.977-6.887c-6.315,0.832-13.015,1.254-19.911,1.254c-28.505,0-44.462-6.764-47.623-10.23 c3.162-3.466,19.119-10.229,47.623-10.229c4.824,0,9.593,0.209,14.174,0.62c4.391,0.404,8.289-2.851,8.684-7.252 c0.396-4.4-2.852-8.288-7.252-8.684c-5.056-0.454-10.306-0.685-15.606-0.685c-6.674,0-13.357,0.362-19.758,1.092l-5.977-30.782 c7.091-6.432,13.828-13.93,19.836-22.12c6.327-8.627,11.672-17.791,15.729-26.916l1.128,0.747c1.359,0.899,2.891,1.329,4.407,1.329 c2.595,0,5.141-1.261,6.679-3.587c2.438-3.685,1.427-8.648-2.258-11.086l-13.125-8.684l10.25-39.124 c3.328-12.701,17-23.432,29.856-23.432h11.854v33.628c-15.119,0.796-27.172,13.199-27.172,28.334l-0.004,22.064 c0,29.044,2.791,57.471,8.076,82.278c-0.007,26.529,2.118,51.468,6.324,74.305C182.215,376.631,170.685,388.527,170.685,403.071z M248.224,414.142h-61.54v-11.07c0-6.104,4.965-11.068,11.068-11.068h8.558c0.015,0,0.03,0.002,0.045,0.002 c0.012,0,0.024-0.002,0.036-0.002h41.832V414.142z M256.224,303.354c-4.418,0-8,3.582-8,8v64.649H212.9 c-4.436-22.883-6.663-48.108-6.609-75.104c0.001-0.573-0.06-1.145-0.18-1.705c-5.166-23.913-7.896-51.488-7.896-79.744l0.004-22.064 c0-6.824,5.704-12.377,12.716-12.377h6.417c0.013,0,0.026,0.002,0.039,0.002s0.026-0.002,0.039-0.002h77.592 c0.013,0,0.026,0.002,0.039,0.002s0.026-0.002,0.039-0.002h6.425c7.011,0,12.715,5.553,12.715,12.377v23.75 c0,16.136-0.843,31.693-2.514,46.538c-1.788-1.04-3.546-2.098-5.255-3.18c-3.732-2.363-8.674-1.253-11.039,2.479 c-2.363,3.732-1.253,8.675,2.48,11.038c3.662,2.319,7.5,4.544,11.475,6.678c-0.894,5.512-1.904,10.916-3.044,16.192 c-0.12,0.555-0.18,1.121-0.18,1.688c0,25.807-2.284,51.036-6.615,73.434h-35.322v-64.649 C264.224,306.936,260.643,303.354,256.224,303.354z M325.764,414.142h-61.54v-22.139h41.771c0.008,0,0.015,0,0.023,0h8.677 c6.103,0,11.068,4.965,11.068,11.068V414.142z M293.209,242.313V207.94c0-4.418-3.582-8-8-8h-57.968c-4.418,0-8,3.582-8,8v34.372 c0,3.354,2.093,6.354,5.242,7.51l28.983,10.644c0.89,0.327,1.824,0.49,2.758,0.49c0.934,0,1.868-0.163,2.758-0.49l28.985-10.644 C291.116,248.666,293.209,245.667,293.209,242.313z M277.209,236.728l-20.985,7.706l-20.983-7.706V215.94h41.968V236.728z M231.598,113.215c4.829,7.992,14.351,13.443,25.288,13.443c11.747,0,21.86-6.289,26.28-15.26 c15.902-9.631,25.666-26.759,25.666-45.396v-12.93c0-4.75-0.637-9.353-1.813-13.737c5.882-1.763,11.603-3.713,17.099-5.853 c4.118-1.603,6.156-6.239,4.554-10.356s-6.241-6.157-10.356-4.554c-5.701,2.219-11.662,4.226-17.813,6.011 C291.069,9.819,274.544,0,255.759,0c-29.265,0-53.074,23.809-53.074,53.073v12.93C202.685,85.912,213.946,104.137,231.598,113.215z M269.545,101.298c0,5.074-5.797,9.36-12.658,9.36c-5.574,0-10.446-2.829-12.078-6.61c-0.001-0.001-0.001-0.002-0.002-0.004 c-0.376-0.872-0.58-1.796-0.58-2.746v-7.429c3.887,1.695,8.21,2.614,12.659,2.614s8.771-0.919,12.658-2.614V101.298z M255.759,16 c11.16,0,21.176,4.964,27.979,12.791c-8.896,1.9-18.042,3.352-27.272,4.303c-11.129,1.147-22.077,1.543-32.66,1.212 C230.258,23.363,242.162,16,255.759,16z M218.685,53.073c0-0.993,0.051-1.974,0.128-2.947c4.001,0.202,8.051,0.305,12.145,0.305 c1.363,0,2.738-0.032,4.11-0.055c0.789,3.589,3.983,6.276,7.809,6.276c4.077,0,7.434-3.052,7.93-6.993 c2.426-0.185,4.859-0.398,7.3-0.649c0.62-0.064,1.237-0.138,1.856-0.206c0.081,4.348,3.625,7.849,7.992,7.849c4.418,0,8-3.582,8-8 v-2.081c5.266-0.896,10.476-1.943,15.601-3.132c0.828,3.074,1.277,6.302,1.277,9.634v12.93c0,8.066-2.641,15.72-7.288,21.988v-7.285 c0-4.418-3.582-8-8-8h-3.458c-2.442,0-4.75,1.115-6.268,3.028c-2.324,2.929-6.513,4.749-10.932,4.749 c-4.419,0-8.608-1.82-10.933-4.749c-1.518-1.913-3.825-3.028-6.267-3.028h-3.459c-4.418,0-8,3.582-8,8V90.74 c-6.016-6.691-9.542-15.45-9.542-24.737V53.073z"/></symbol><symbol id="settings" viewBox="0 0 512 512"><title>settings</title><g> <g> <path d="M328.844,368.733c-5.383-3.235-10.908-6.487-16.433-9.675c1.299-11.07,1.302-22.268,0.006-33.316 c5.546-3.2,11.068-6.45,16.425-9.671c9.02-5.42,12.78-16.856,8.744-26.603c0,0,0,0-0.001-0.001l-11.771-28.418 c-4.037-9.744-14.777-15.175-24.993-12.63c-6.071,1.511-12.274,3.118-18.455,4.776c-6.901-8.732-14.82-16.649-23.563-23.554 c1.658-6.182,3.266-12.388,4.778-18.461c2.545-10.211-2.885-20.955-12.629-24.992l-28.418-11.771 c-9.744-4.038-21.183-0.281-26.605,8.741c-3.229,5.374-6.482,10.899-9.674,16.433c-11.067-1.299-22.263-1.302-33.316-0.007 c-3.202-5.551-6.453-11.074-9.67-16.426c-5.424-9.02-16.86-12.778-26.605-8.741l-28.418,11.771 c-9.742,4.036-15.174,14.781-12.629,24.992c1.515,6.085,3.121,12.289,4.776,18.455c-8.731,6.899-16.649,14.82-23.553,23.563 c-6.196-1.663-12.402-3.269-18.463-4.779c-10.214-2.547-20.956,2.888-24.993,12.631L1.615,289.467 c-4.035,9.745-0.276,21.182,8.742,26.602c5.375,3.23,10.9,6.482,16.433,9.675c-1.298,11.066-1.301,22.262-0.006,33.316 c-5.538,3.195-11.06,6.446-16.429,9.672c-9.018,5.421-12.777,16.857-8.741,26.603l11.772,28.418 c4.036,9.743,14.775,15.176,24.993,12.63c6.064-1.51,12.268-3.116,18.453-4.776c6.901,8.731,14.82,16.647,23.563,23.553 c-1.66,6.189-3.267,12.395-4.778,18.461c-2.545,10.211,2.885,20.956,12.629,24.992l28.419,11.772 c2.64,1.093,5.403,1.615,8.137,1.615c7.362,0,14.514-3.779,18.471-10.355c3.205-5.333,6.456-10.856,9.674-16.432 c11.065,1.297,22.264,1.299,33.316,0.006c3.179,5.512,6.43,11.034,9.67,16.427c5.422,9.02,16.858,12.777,26.605,8.741 l28.418-11.771c9.742-4.036,15.174-14.781,12.629-24.992c-1.503-6.033-3.109-12.237-4.776-18.455 c8.729-6.899,16.648-14.819,23.554-23.562c6.178,1.657,12.384,3.263,18.46,4.777c10.211,2.547,20.956-2.884,24.993-12.63 l11.771-28.419C341.621,385.59,337.862,374.153,328.844,368.733z M305.116,413.834c-5.837-1.462-11.787-3.008-17.703-4.602 c-8.376-2.253-17.215,0.692-22.519,7.507c-6.096,7.83-13.151,14.886-20.968,20.973c-6.807,5.302-9.748,14.138-7.493,22.509 c1.603,5.954,3.148,11.9,4.601,17.696l-26.122,10.819c-3.107-5.184-6.218-10.481-9.259-15.765 c-4.327-7.514-12.655-11.678-21.216-10.618c-9.831,1.221-19.81,1.22-29.654-0.005c-8.585-1.066-16.906,3.098-21.232,10.614 c-3.078,5.344-6.19,10.644-9.263,15.773l-26.122-10.82c1.461-5.827,3.007-11.776,4.603-17.701 c2.255-8.375-0.692-17.215-7.507-22.52c-7.83-6.095-14.885-13.149-20.973-20.965c-5.3-6.809-14.136-9.749-22.51-7.495 c-5.923,1.595-11.87,3.141-17.695,4.601l-10.82-26.121c5.16-3.094,10.459-6.205,15.765-9.26 c7.515-4.327,11.683-12.653,10.619-21.215c-1.223-9.832-1.22-19.81,0.003-29.655c1.068-8.57-3.097-16.905-10.616-21.233 c-5.304-3.054-10.604-6.166-15.772-9.265l10.82-26.121c5.82,1.459,11.768,3.005,17.702,4.602 c8.372,2.256,17.212-0.692,22.52-7.507c6.095-7.83,13.15-14.886,20.965-20.972c6.808-5.301,9.749-14.138,7.494-22.512 c-1.59-5.904-3.136-11.85-4.601-17.694l26.122-10.819c3.084,5.146,6.196,10.444,9.259,15.765 c4.328,7.515,12.663,11.689,21.216,10.618c9.827-1.223,19.804-1.223,29.657,0.005c8.575,1.068,16.905-3.102,21.231-10.617 c3.053-5.304,6.166-10.604,9.262-15.771l26.122,10.819c-1.462,5.833-3.008,11.782-4.603,17.703 c-2.255,8.374,0.692,17.214,7.507,22.519c7.829,6.095,14.885,13.149,20.973,20.965c5.3,6.807,14.133,9.748,22.511,7.494 c5.919-1.594,11.865-3.14,17.694-4.601l10.819,26.121c-5.153,3.089-10.451,6.2-15.765,9.26 c-7.515,4.327-11.684,12.654-10.619,21.216c1.223,9.827,1.221,19.806-0.005,29.657c-1.066,8.571,3.101,16.904,10.617,21.231 c5.296,3.049,10.596,6.161,15.772,9.263L305.116,413.834z"/> </g> </g><g> <g> <path d="M241.762,312.511c0,0,0,0-0.001-0.001c-16.48-39.789-62.256-58.752-102.051-42.271 C99.922,286.721,80.958,332.501,97.44,372.29c7.983,19.276,22.997,34.287,42.271,42.272c9.637,3.991,19.763,5.987,29.889,5.987 s20.252-1.996,29.891-5.987C239.279,398.08,258.242,352.301,241.762,312.511z M190.72,393.388c-13.618,5.641-28.617,5.64-42.239,0 c-13.618-5.641-24.225-16.249-29.867-29.868c-11.647-28.114,1.753-60.462,29.868-72.107c6.885-2.852,14.021-4.202,21.047-4.202 c21.667,0,42.265,12.84,51.06,34.07C232.234,349.395,218.834,381.742,190.72,393.388z"/> </g> </g><g> <g> <path d="M496.553,100.936c-3.956-0.592-8.019-1.167-12.111-1.713c-2.062-6.857-4.816-13.505-8.214-19.819 c2.504-3.275,4.972-6.556,7.357-9.779c5.295-7.161,4.529-17.317-1.78-23.623l-15.808-15.806 c-6.309-6.31-16.465-7.075-23.624-1.778c-3.234,2.393-6.514,4.86-9.779,7.355c-6.313-3.398-12.96-6.152-19.819-8.215 c-0.547-4.092-1.12-8.155-1.712-12.11C409.746,6.642,402.024,0,393.102,0h-22.356c-8.922,0-16.644,6.642-17.961,15.447 c-0.591,3.953-1.165,8.017-1.712,12.11c-6.859,2.063-13.507,4.817-19.819,8.215c-3.263-2.496-6.545-4.964-9.778-7.355 c-7.161-5.297-17.317-4.532-23.624,1.777l-15.806,15.805c-6.31,6.308-7.077,16.465-1.78,23.627 c2.383,3.222,4.851,6.504,7.354,9.778c-3.396,6.313-6.151,12.96-8.214,19.819c-4.091,0.547-8.155,1.121-12.11,1.713 c-8.807,1.318-15.449,9.039-15.449,17.962v22.355c0,8.922,6.64,16.644,15.447,17.962c3.956,0.592,8.019,1.167,12.111,1.713 c2.063,6.858,4.817,13.505,8.214,19.819c-2.501,3.272-4.969,6.552-7.357,9.779c-5.294,7.159-4.529,17.317,1.78,23.622 l15.808,15.808c6.308,6.31,16.464,7.074,23.624,1.778c3.234-2.391,6.514-4.86,9.778-7.354c6.315,3.398,12.963,6.152,19.82,8.214 c0.545,4.091,1.12,8.155,1.712,12.111c1.318,8.806,9.04,15.448,17.962,15.448h22.356c8.922,0,16.644-6.64,17.961-15.449 c0.591-3.956,1.165-8.019,1.712-12.111c6.858-2.061,13.505-4.817,19.819-8.215c3.263,2.496,6.545,4.964,9.778,7.356 c7.159,5.297,17.317,4.532,23.624-1.777l15.808-15.806c6.309-6.308,7.075-16.465,1.778-23.626 c-2.386-3.226-4.854-6.508-7.354-9.777c3.396-6.313,6.151-12.959,8.214-19.819c4.091-0.547,8.155-1.121,12.11-1.713 c8.807-1.318,15.449-9.039,15.449-17.962v-22.355C512,109.976,505.359,102.254,496.553,100.936z M490.228,138.142 c-3.592,0.521-7.257,1.027-10.934,1.506c-7.273,0.949-13.227,6.111-15.165,13.149c-1.857,6.739-4.552,13.242-8.009,19.328 c-3.611,6.353-3.054,14.215,1.419,20.032c2.255,2.932,4.492,5.883,6.669,8.799l-11.404,11.405 c-2.925-2.183-5.876-4.419-8.802-6.669c-5.814-4.475-13.678-5.028-20.032-1.421c-6.087,3.458-12.59,6.153-19.325,8.01 c-7.042,1.94-12.204,7.894-13.15,15.165c-0.479,3.677-0.984,7.343-1.506,10.935h-16.13c-0.521-3.592-1.026-7.257-1.506-10.931 c-0.949-7.274-6.11-13.228-13.15-15.168c-6.737-1.856-13.238-4.551-19.327-8.009c-6.354-3.61-14.218-3.055-20.031,1.419 c-2.927,2.251-5.876,4.486-8.803,6.669l-11.404-11.405c2.177-2.919,4.413-5.868,6.671-8.803c4.47-5.815,5.027-13.677,1.417-20.03 c-3.457-6.086-6.152-12.59-8.009-19.327c-1.939-7.04-7.892-12.201-15.165-13.15c-3.677-0.48-7.343-0.984-10.935-1.507v-16.128 c3.592-0.521,7.257-1.027,10.934-1.506c7.273-0.949,13.227-6.111,15.165-13.149c1.857-6.738,4.551-13.241,8.009-19.328 c3.611-6.353,3.054-14.216-1.417-20.031c-2.259-2.936-4.495-5.886-6.67-8.8l11.404-11.405c2.925,2.183,5.875,4.419,8.8,6.668 c5.812,4.475,13.675,5.033,20.034,1.422c6.085-3.457,12.589-6.152,19.325-8.01c7.042-1.94,12.204-7.894,13.15-15.165 c0.48-3.677,0.986-7.342,1.507-10.934h16.13c0.521,3.591,1.026,7.256,1.505,10.931c0.949,7.274,6.111,13.228,13.15,15.167 c6.738,1.857,13.242,4.553,19.328,8.01c6.355,3.611,14.218,3.05,20.03-1.42c2.927-2.25,5.876-4.486,8.803-6.669l11.404,11.405 c-2.175,2.915-4.411,5.866-6.67,8.803c-4.471,5.814-5.027,13.676-1.419,20.029c3.457,6.088,6.152,12.592,8.009,19.328 c1.939,7.04,7.892,12.201,15.165,13.15c3.677,0.48,7.343,0.985,10.935,1.507V138.142z"/> </g> </g><g> <g> <path d="M381.924,83.675c-25.585,0-46.401,20.815-46.401,46.401c0,25.587,20.815,46.402,46.401,46.402 s46.401-20.815,46.401-46.402C428.325,104.49,407.51,83.675,381.924,83.675z M381.924,155.851 c-14.211,0-25.775-11.563-25.775-25.776c0-14.213,11.563-25.775,25.775-25.775c14.212,0,25.774,11.563,25.775,25.775 C407.699,144.288,396.136,155.851,381.924,155.851z"/> </g> </g></symbol><symbol id="gas-station" viewBox="0 0 512 512"><title>gas-station</title><g> <g> <circle cx="186.182" cy="116.364" r="11.636" fill="#008080"/> </g> </g><g> <g> <circle cx="139.636" cy="116.364" r="11.636" fill="#008080"/> </g> </g><g> <g> <circle cx="232.727" cy="116.364" r="11.636" fill="#008080"/> </g> </g><g> <g> <path d="M195.491,260.655c-3.491-5.818-15.127-5.818-18.618,0s-37.236,57.018-37.236,86.109c0,26.764,20.945,48.873,46.545,48.873 c25.6,0,46.545-22.109,46.545-48.873C232.727,317.673,200.145,266.473,195.491,260.655z M186.182,372.364 c-12.8,0-23.273-11.636-23.273-25.6c0-12.8,11.636-37.236,23.273-57.018c11.636,19.782,23.273,44.218,23.273,57.018 C209.455,360.727,198.982,372.364,186.182,372.364z" fill="#008080"/> </g> </g><g> <g> <path d="M508.509,143.127l-58.182-58.182c-4.655-4.655-11.636-4.655-16.291,0c-4.655,4.655-4.655,11.636,0,16.291l29.091,29.091 c-11.636,5.818-20.945,18.618-20.945,32.582c0,19.782,15.127,34.909,34.909,34.909c4.655,0,8.145-1.164,11.636-2.327v211.782 c0,19.782-15.127,34.909-34.909,34.909c-19.782,0-34.909-15.127-34.909-34.909V221.091c0-32.582-25.6-58.182-58.182-58.182 h-23.273V58.182C337.455,25.6,311.855,0,279.273,0H93.091C60.509,0,34.909,25.6,34.909,58.182v384 C15.127,442.182,0,457.309,0,477.091C0,496.873,15.127,512,34.909,512h302.545c19.782,0,34.909-15.127,34.909-34.909 c0-19.782-15.127-34.909-34.909-34.909H93.091c-6.982,0-11.636,4.655-11.636,11.636s4.655,11.636,11.636,11.636h244.364 c6.982,0,11.636,4.655,11.636,11.636s-4.655,11.636-11.636,11.636H34.909c-6.982,0-11.636-4.655-11.636-11.636 s4.655-11.636,11.636-11.636h11.636c6.982,0,11.636-4.655,11.636-11.636V58.182c0-19.782,15.127-34.909,34.909-34.909h186.182 c19.782,0,34.909,15.127,34.909,34.909v349.091c0,6.982,4.655,11.636,11.636,11.636s11.636-4.655,11.636-11.636V186.182h23.273 c19.782,0,34.909,15.127,34.909,34.909v186.182c0,32.582,25.6,58.182,58.182,58.182c32.582,0,58.182-25.6,58.182-58.182v-256 C512,147.782,510.836,145.455,508.509,143.127z M477.091,174.545c-6.982,0-11.636-4.655-11.636-11.636 c0-6.982,4.655-11.636,11.636-11.636s11.636,4.655,11.636,11.636C488.727,169.891,484.073,174.545,477.091,174.545z" fill="#008080"/> </g> </g><g> <g> <path d="M279.273,46.545H93.091c-6.982,0-11.636,4.655-11.636,11.636v116.364c0,6.982,4.655,11.636,11.636,11.636h186.182 c6.982,0,11.636-4.655,11.636-11.636V58.182C290.909,51.2,286.255,46.545,279.273,46.545z M267.636,162.909H104.727V69.818 h162.909V162.909z" fill="#008080"/> </g> </g></symbol><symbol id="nature" viewBox="0 0 512.001 512.001"><title>nature</title><g> <g> <path d="M176.311,371.81l-0.654-0.417c-4.66-2.965-10.841-1.589-13.805,3.07c-2.964,4.66-1.59,10.841,3.07,13.805l0.626,0.399 c1.667,1.064,3.53,1.573,5.372,1.573c3.3,0,6.53-1.632,8.438-4.62C182.33,380.965,180.966,374.782,176.311,371.81z"/> </g> </g><g> <g> <path d="M509.069,272.917c-1.875-1.876-4.419-2.93-7.072-2.93c-2.225,0-25.935,0.1-62.232,3.854 c-1.877-38.656-15.536-74.912-39.803-105.36c-25.414-31.886-61.114-54.7-100.524-64.241c-5.367-1.296-10.773,1.999-12.072,7.366 c-1.299,5.368,1.999,10.773,7.366,12.072c71.498,17.309,122.092,79.437,125.12,152.457 c-47.871,6.073-111.27,18.141-175.414,42.131c-0.474,0.177-0.919,0.397-1.348,0.635c-22.975-11.167-47.33-20.628-72.91-28.3 c-28.313-8.491-54.852-13.841-77.896-17.192c4.185-71.7,54.735-132.723,124.978-149.73c5.368-1.3,8.666-6.705,7.366-12.072 c-1.3-5.368-6.709-8.667-12.072-7.366c-78.375,18.976-134.898,86.785-140.146,166.645c-36.975-3.998-61.201-2.742-62.91-2.646 c-5.294,0.3-9.433,4.681-9.433,9.984v223.774c0,5.523,4.477,10,10,10h491.883c5.522,0,10.048-4.476,10.049-9.998V279.989 C511.998,277.337,510.945,274.793,509.069,272.917z M20.065,491.998v-96.482c9.641,4.073,23.811,10.791,39.663,20.699 c23.467,14.668,54.998,39.219,79.142,75.783H20.065z M313.5,491.998h-13.993c-26.235-39.045-58.551-73.162-96.161-101.437 c-4.415-3.32-10.684-2.43-14.002,1.984c-3.319,4.415-2.431,10.684,1.984,14.002c32.192,24.202,60.316,52.894,83.823,85.451 H162.426c-26.909-45.925-64.98-75.873-92.658-93.092c-21.623-13.452-40.105-21.313-49.703-24.963v-43.876 c19.975,3.741,64.574,14.333,114.796,40.771c1.486,0.783,3.079,1.153,4.65,1.153c3.593,0,7.067-1.943,8.857-5.344 c2.573-4.887,0.697-10.934-4.19-13.507C88.052,323.595,39.449,313.014,20.065,309.71v-21.691 c21.842-0.014,79.044,2.047,145.027,21.936c106.165,32,186.136,93.199,237.958,182.043H313.5z M491.949,491.998h-65.924 c-8.774-15.982-18.451-31.201-28.994-45.633c41.186-18.777,77.984-23.626,94.934-24.873L491.949,491.998z M491.971,401.404 c-18.608,1.181-60.374,6.364-107.44,28.722c-11.622-14.333-24.17-27.803-37.612-40.375 c71.382-30.139,127.582-34.167,145.062-34.65L491.971,401.404z M491.985,335.063c-19.603,0.395-81.941,4.655-161.595,40.054 c-7.189-6.019-14.602-11.806-22.243-17.35c-13.075-9.487-26.819-18.266-41.165-26.341 c98.538-33.914,194.471-40.078,225.013-41.193L491.985,335.063z"/> </g> </g><g> <g> <path d="M256.292,99.08H256c-5.523,0-10,4.477-10,10s4.477,10,10,10h0.292c5.523,0,10-4.477,10-10S261.815,99.08,256.292,99.08z"/> </g> </g><g> <g> <path d="M256,0.003c-5.523,0-10,4.477-10,10V75.17c0,5.523,4.477,10,10,10c5.523,0,10-4.477,10-10V10.003 C266,4.48,261.523,0.003,256,0.003z"/> </g> </g><g> <g> <path d="M454.287,84.79c-3.905-3.905-10.237-3.905-14.142,0l-44.204,44.204c-3.905,3.905-3.905,10.237,0,14.142 c1.953,1.953,4.512,2.929,7.071,2.929s5.119-0.977,7.071-2.929l44.204-44.204C458.192,95.027,458.192,88.695,454.287,84.79z"/> </g> </g><g> <g> <path d="M185.676,87.168l-23.923-57.753c-2.113-5.103-7.963-7.526-13.065-5.412c-5.103,2.114-7.525,7.963-5.412,13.066 l23.922,57.753c1.595,3.852,5.318,6.176,9.243,6.176c1.275,0,2.572-0.245,3.823-0.764C185.367,98.12,187.79,92.271,185.676,87.168 z"/> </g> </g><g> <g> <path d="M363.313,24.004c-5.1-2.114-10.951,0.31-13.065,5.412l-23.925,57.753c-2.113,5.102,0.31,10.952,5.413,13.066 c1.251,0.519,2.547,0.764,3.823,0.764c3.924,0,7.647-2.325,9.243-6.176l23.923-57.753 C370.838,31.967,368.415,26.118,363.313,24.004z"/> </g> </g><g> <g> <path d="M67.746,194.277l-53.917-22.333c-5.102-2.113-10.951,0.309-13.065,5.412c-2.115,5.101,0.308,10.951,5.411,13.065 l53.916,22.333c1.251,0.519,2.547,0.764,3.823,0.764c3.924,0,7.647-2.325,9.243-6.176C75.271,202.24,72.848,196.39,67.746,194.277 z"/> </g> </g><g> <g> <path d="M511.237,177.356c-2.113-5.103-7.964-7.526-13.065-5.412l-53.917,22.333c-5.103,2.112-7.526,7.962-5.413,13.065 c1.595,3.851,5.318,6.176,9.243,6.176c1.275,0,2.572-0.245,3.823-0.764l53.916-22.333 C510.928,188.308,513.351,182.458,511.237,177.356z"/> </g> </g><g> <g> <path d="M116.058,128.994L71.855,84.79c-3.905-3.906-10.237-3.905-14.142,0s-3.906,10.237,0,14.142l44.203,44.204 c1.953,1.953,4.512,2.929,7.071,2.929s5.119-0.977,7.071-2.929C119.962,139.23,119.963,132.899,116.058,128.994z"/> </g> </g></symbol><symbol id="food" viewBox="0 0 512 512"><title>food</title><g> <g> <path d="M218.727,492h-75.842v-3.922c16.601-0.914,53.691-5.846,76.225-31.028c27.035-30.227,21.921-77.801,20.514-87.516 c-0.067-1.112-0.321-2.222-0.77-3.283c-1.485-3.519-4.846-5.884-8.66-6.095c-0.481-0.026-3.241-0.161-7.564-0.06 c23.028-30.247,18.336-73.947,16.994-83.214c-0.067-1.112-0.321-2.222-0.77-3.283c-1.486-3.519-4.846-5.884-8.66-6.095 c-0.484-0.027-3.269-0.162-7.629-0.058c23.103-30.25,18.403-74.024,17.059-83.299c-0.067-1.112-0.321-2.222-0.77-3.283 c-1.486-3.519-4.846-5.884-8.66-6.095c-0.482-0.026-3.251-0.161-7.587-0.059c23.054-30.249,18.36-73.975,17.016-83.244 c-0.067-1.112-0.321-2.222-0.77-3.283c-1.486-3.519-4.846-5.884-8.66-6.095c-2.309-0.127-56.853-2.748-86.204,30.072 c-4.577,5.118-8.197,10.766-11.053,16.662c-2.856-5.896-6.476-11.544-11.053-16.662C92.532,79.34,37.99,81.958,35.68,82.087 c-3.814,0.211-7.168,2.584-8.654,6.103c-0.432,1.023-0.683,2.094-0.76,3.167c-1.321,9.029-6.145,52.981,17,83.351 c-4.336-0.102-7.104,0.033-7.586,0.06c-3.814,0.211-7.168,2.584-8.654,6.103c-0.432,1.023-0.683,2.094-0.76,3.167 c-1.322,9.035-6.151,53.035,17.043,83.406c-4.36-0.103-7.145,0.032-7.629,0.059c-3.814,0.211-7.168,2.584-8.654,6.103 c-0.432,1.023-0.683,2.094-0.76,3.167c-1.321,9.026-6.141,52.951,16.978,83.32c-4.323-0.1-7.082,0.034-7.563,0.061 c-3.814,0.211-7.168,2.584-8.654,6.103c-0.432,1.024-0.683,2.094-0.76,3.167c-1.384,9.462-6.639,57.282,20.5,87.625 c22.491,25.134,59.487,30.094,76.12,31.022V492H10c-5.523,0-10,4.477-10,10s4.477,10,10,10h208.727c5.523,0,10-4.477,10-10 S224.25,492,218.727,492z M158.898,125.492c16.974-18.979,47.11-22.711,61.754-23.362c0.983,14.443,0.612,44.442-16.448,63.517 c-16.914,18.901-46.233,23.284-60.666,24.276C142.227,175.12,141.956,144.434,158.898,125.492z M204.204,258.327 c-16.914,18.902-46.234,23.285-60.666,24.277c-1.31-14.804-1.581-45.491,15.36-64.431c16.974-18.979,47.11-22.711,61.754-23.362 C221.635,209.254,221.264,239.253,204.204,258.327z M158.898,310.909c16.974-18.979,47.11-22.711,61.754-23.362 c0.983,14.443,0.612,44.442-16.448,63.517c-7.031,7.857-16.207,13.2-25.565,16.839c-0.803,0.288-1.605,0.587-2.407,0.897 c-12.374,4.424-24.775,5.996-32.694,6.54C142.227,360.536,141.956,329.851,158.898,310.909z M158.898,403.561 c16.974-18.979,47.11-22.711,61.754-23.362c0.983,14.443,0.611,44.443-16.448,63.516C187.29,462.617,157.97,467,143.538,467.992 C142.227,453.188,141.956,422.502,158.898,403.561z M45.223,102.11c14.616,0.621,44.695,4.31,61.752,23.382 c16.943,18.943,16.67,49.63,15.359,64.432c-14.411-0.991-43.746-5.37-60.665-24.276C44.603,146.565,44.239,116.546,45.223,102.11z M45.223,194.791c14.616,0.621,44.696,4.31,61.753,23.382c16.942,18.942,16.67,49.63,15.36,64.433 c-14.411-0.991-43.746-5.37-60.665-24.276C44.603,239.247,44.239,209.227,45.223,194.791z M45.223,287.527 c14.616,0.621,44.695,4.31,61.752,23.382c16.943,18.943,16.67,49.63,15.359,64.432c-7.904-0.543-20.296-2.113-32.668-6.532 c-0.822-0.318-1.645-0.624-2.468-0.92c-9.343-3.637-18.505-8.976-25.527-16.823C44.603,331.983,44.239,301.963,45.223,287.527z M122.336,467.994c-14.411-0.991-43.746-5.37-60.665-24.276C44.61,424.643,44.239,394.643,45.222,380.2 c14.644,0.651,44.78,4.382,61.754,23.362C123.919,422.504,123.646,453.191,122.336,467.994z"/> </g> </g><g> <g> <path d="M132.885,29.667c-5.523,0-10,4.477-10,10v36.098c0,5.522,4.477,9.999,10,9.999s10-4.477,10-10V39.667 C142.885,34.144,138.408,29.667,132.885,29.667z"/> </g> </g><g> <g> <path d="M132.885,0c-5.523,0-10,4.477-10,10v0.113c0,5.523,4.477,10,10,10s10-4.477,10-10V10C142.885,4.477,138.408,0,132.885,0z"/> </g> </g><g> <g> <path d="M93.685,39.489c-5.523,0-10,4.477-10,10v25.083c0,5.523,4.477,10,10,10s10-4.477,10-10V49.489 C103.685,43.966,99.208,39.489,93.685,39.489z"/> </g> </g><g> <g> <path d="M93.685,9.822c-5.523,0-10,4.477-10,10v0.113c0,5.523,4.477,10,10,10s10-4.477,10-10v-0.113 C103.685,14.299,99.208,9.822,93.685,9.822z"/> </g> </g><g> <g> <path d="M172.085,39.489c-5.523,0-10,4.477-10,10v25.083c0,5.523,4.477,10,10,10s10-4.477,10-10V49.489 C182.085,43.966,177.608,39.489,172.085,39.489z"/> </g> </g><g> <g> <path d="M172.085,9.822c-5.523,0-10,4.477-10,10v0.113c0,5.523,4.477,10,10,10s10-4.477,10-10v-0.113 C182.085,14.299,177.608,9.822,172.085,9.822z"/> </g> </g><g> <g> <path d="M378.885,122.347c-5.523,0-10,4.477-10,10v36.098c0,5.523,4.477,10,10,10s10-4.477,10-10v-36.098 C388.885,126.824,384.408,122.347,378.885,122.347z"/> </g> </g><g> <g> <path d="M378.885,92.681c-5.523,0-10,4.477-10,10v0.113c0,5.523,4.477,10,10,10s10-4.477,10-10v-0.113 C388.885,97.158,384.408,92.681,378.885,92.681z"/> </g> </g><g> <g> <path d="M339.685,132.17c-5.523,0-10,4.477-10,10v25.083c0,5.523,4.477,10,10,10s10-4.477,10-10V142.17 C349.685,136.647,345.208,132.17,339.685,132.17z"/> </g> </g><g> <g> <path d="M339.685,102.503c-5.523,0-10,4.477-10,10v0.113c0,5.523,4.477,10,10,10s10-4.477,10-10v-0.113 C349.685,106.98,345.208,102.503,339.685,102.503z"/> </g> </g><g> <g> <path d="M418.085,132.17c-5.523,0-10,4.477-10,10v25.083c0,5.523,4.477,10,10,10s10-4.477,10-10V142.17 C428.085,136.647,423.608,132.17,418.085,132.17z"/> </g> </g><g> <g> <path d="M418.085,102.503c-5.523,0-10,4.477-10,10v0.113c0,5.523,4.477,10,10,10s10-4.477,10-10v-0.113 C428.085,106.98,423.608,102.503,418.085,102.503z"/> </g> </g><g> <g> <path d="M253.386,492h-0.13c-5.523,0-10,4.477-10,10s4.477,10,10,10h0.13c5.523,0,10-4.477,10-10S258.909,492,253.386,492z"/> </g> </g><g> <g> <path d="M502,492H388.885v-3.921c16.601-0.914,53.691-5.846,76.225-31.028c27.035-30.227,21.921-77.801,20.514-87.516 c-0.067-1.112-0.321-2.222-0.77-3.283c-1.485-3.519-4.846-5.884-8.66-6.095c-0.481-0.026-3.241-0.161-7.564-0.06 c23.029-30.247,18.337-73.947,16.994-83.214c-0.067-1.112-0.321-2.222-0.77-3.283c-1.486-3.519-4.846-5.884-8.66-6.095 c-0.484-0.027-3.269-0.162-7.629-0.058c23.103-30.25,18.403-74.024,17.059-83.299c-0.067-1.112-0.321-2.222-0.77-3.283 c-1.486-3.519-4.846-5.884-8.66-6.095c-2.307-0.126-56.853-2.748-86.204,30.072c-4.577,5.118-8.197,10.766-11.053,16.663 c-2.856-5.897-6.476-11.545-11.053-16.663c-29.351-32.82-83.897-30.202-86.204-30.073c-3.814,0.211-7.168,2.584-8.654,6.103 c-0.432,1.023-0.683,2.094-0.76,3.167c-1.322,9.035-6.151,53.035,17.043,83.406c-4.36-0.103-7.145,0.032-7.629,0.059 c-3.814,0.211-7.168,2.584-8.654,6.103c-0.432,1.023-0.683,2.094-0.76,3.167c-1.321,9.026-6.141,52.951,16.978,83.32 c-4.323-0.101-7.083,0.034-7.563,0.061c-3.814,0.211-7.168,2.584-8.654,6.103c-0.432,1.024-0.683,2.094-0.76,3.167 c-1.384,9.462-6.639,57.282,20.5,87.625c22.491,25.134,59.487,30.094,76.12,31.022V492h-81.551c-5.523,0-10,4.477-10,10 s4.477,10,10,10H502c5.523,0,10-4.477,10-10S507.523,492,502,492z M404.898,218.173c16.974-18.979,47.11-22.711,61.754-23.362 c0.983,14.443,0.612,44.442-16.448,63.516c-16.914,18.902-46.233,23.285-60.666,24.277 C388.228,267.8,387.957,237.114,404.898,218.173z M404.898,310.909c16.974-18.979,47.11-22.711,61.754-23.362 c0.983,14.443,0.612,44.442-16.448,63.517c-7.033,7.859-16.211,13.202-25.571,16.841c-0.799,0.287-1.598,0.585-2.396,0.893 c-12.376,4.425-24.779,5.998-32.699,6.542C388.227,360.536,387.956,329.851,404.898,310.909z M404.898,403.561 c16.974-18.979,47.11-22.711,61.754-23.362c0.983,14.443,0.611,44.443-16.448,63.516C433.29,462.617,403.97,467,389.538,467.992 C388.227,453.188,387.956,422.502,404.898,403.561z M291.223,194.791c14.616,0.621,44.695,4.31,61.752,23.382 c16.941,18.942,16.669,49.629,15.359,64.432c-14.411-0.991-43.746-5.37-60.665-24.276 C290.603,239.247,290.239,209.227,291.223,194.791z M291.223,287.527c14.616,0.621,44.695,4.31,61.752,23.382 c16.943,18.943,16.67,49.63,15.359,64.432c-7.905-0.543-20.299-2.113-32.672-6.534c-0.819-0.317-1.639-0.622-2.458-0.916 c-9.346-3.637-18.509-8.977-25.533-16.825C290.603,331.983,290.239,301.963,291.223,287.527z M368.336,467.994 c-14.411-0.991-43.746-5.37-60.665-24.276c-17.061-19.075-17.432-49.075-16.449-63.518c14.644,0.651,44.78,4.382,61.754,23.362 C369.919,422.504,369.646,453.191,368.336,467.994z"/> </g> </g></symbol><symbol id="people" viewBox="0 0 512 512"><title>people</title><g> <g> <path d="M10.138,480H10c-5.522,0-10,4.477-10,10s4.478,10,10,10h0.138c5.522,0,10-4.477,10-10S15.66,480,10.138,480z"/> </g> </g><g> <g> <path d="M480.581,350.419c-0.146-0.05-0.292-0.098-0.439-0.142l-82.738-24.547c-2.23-0.826-3.796-2.364-3.983-3.861v-24.536 c0-0.33-0.018-0.656-0.049-0.978l31.542-18.086c0.182-0.104,0.36-0.215,0.536-0.331c14.477-9.561,23.985-26.586,25.435-45.543 c0.02-0.254,0.029-0.508,0.029-0.763v-10.37c14.64-4.325,25.354-17.892,25.354-33.915c0-8.341-2.908-16.013-7.757-22.066 c4.485,1.421,8.91,2.902,13.229,4.479c1.122,0.41,2.281,0.607,3.429,0.607c3.06,0,6.028-1.407,7.959-3.943 c2.654-3.487,2.729-8.297,0.184-11.865l-46.285-64.876V41.231c0-4.146-2.559-7.863-6.433-9.342 C438.466,31.077,387.94,12,339.038,12c-48.902,0-99.429,19.077-101.556,19.889c-3.873,1.479-6.433,5.196-6.433,9.342v48.467 l-46.075,64.882c-2.535,3.57-2.453,8.375,0.203,11.855c2.656,3.482,7.269,4.83,11.381,3.328c4.223-1.542,8.549-2.991,12.932-4.384 c-4.804,6.038-7.683,13.673-7.683,21.97c0,16.023,10.715,29.591,25.355,33.915v10.37c0,0.254,0.01,0.508,0.029,0.762 c1.454,19.037,10.895,36.063,25.252,45.544c0.179,0.118,0.361,0.23,0.548,0.337l31.906,18.24c-0.021,0.27-0.041,0.541-0.041,0.817 v20.07c-0.102,0.572-0.164,1.158-0.164,1.759v2.412c0,1.585-1.645,3.276-4.021,4.156l-82.811,24.546 c-0.148,0.044-0.297,0.092-0.443,0.143C178.92,356.852,166,374.252,166,392.732V480h-64v-98h19c19.299,0,35-15.701,35-35V209.958 c0-5.523-4.478-10-10-10c-5.522,0-10,4.477-10,10V347c0,8.271-6.729,15-15,15h-10.287V209.031c0-5.523-4.478-10-10-10 c-5.522,0-10,4.477-10,10V362H65.425V209.031c0-5.523-4.478-10-10-10c-5.522,0-10,4.477-10,10V362H35c-8.271,0-15-6.729-15-15 V209.958c0-5.523-4.478-10-10-10s-10,4.477-10,10V347c0,19.299,15.701,35,35,35h19v98H39.985c-5.522,0-10,4.477-10,10 s4.478,10,10,10H502c5.522,0,10-4.477,10-10c0-1.187,0-97.268,0-97.268C512,374.252,499.08,356.852,480.581,350.419z M82,480h-8 v-98h8V480z M251.05,48.31C265.792,43.357,303.475,32,339.038,32c35.486,0,73.23,11.364,87.987,16.315v32.011 c-16.019-3.191-46.719-7.808-90.324-7.808c-42.198,0-70.506,4.345-85.651,7.548V48.31z M247.175,101.534 c9.055-2.393,38.72-9.016,89.526-9.016c51.354,0,84.291,6.768,94.308,9.154l28.646,40.153 c-36.776-9.957-77.852-15.156-120.507-15.156c-42.694,0-83.803,5.208-120.605,15.183L247.175,101.534z M263.217,261.084 c-9.014-6.081-14.99-17.195-16.054-29.849v-18.531c0-5.523-4.478-10-10-10c-8.467,0-15.355-6.888-15.355-15.355 s6.889-15.355,15.355-15.355c5.332,0,9.727-4.184,9.988-9.509l0.34-6.928c28.736-5.85,59.697-8.887,91.657-8.887 c32,0,62.998,3.044,91.765,8.908v6.416c0,5.523,4.478,10,10,10c8.467,0,15.354,6.888,15.354,15.355s-6.888,15.355-15.354,15.355 c-5.522,0-10,4.477-10,10v18.529c-1.06,12.582-7.106,23.697-16.241,29.854l-60.818,34.872c-0.182,0.105-0.361,0.215-0.536,0.331 c-8.942,5.905-19.617,5.904-28.558,0c-0.179-0.118-0.361-0.231-0.548-0.337L263.217,261.084z M373.419,322.461v6.463 l-34.236,34.082l-34.326-34.089v-20.99l9.165,5.238c7.731,5.03,16.373,7.543,25.017,7.543c8.645,0,17.289-2.515,25.021-7.547 l9.359-5.366v10.633c-0.018,0.244-0.037,0.487-0.037,0.735v2.412C373.382,321.873,373.407,322.166,373.419,322.461z M212.958,480 H186v-87.268c0-9.723,7.632-19.725,17.787-23.352l9.171-2.718V480z M445,480h-11.694v-70.355c0-5.523-4.478-10-10-10 c-5.522,0-10,4.477-10,10V480H264.652v-70.355c0-5.523-4.478-10-10-10c-5.522,0-10,4.477-10,10V480h-11.694V360.734l53.661-15.906 c0.149-0.044,0.297-0.092,0.443-0.143c1.292-0.449,2.525-0.98,3.701-1.578l41.382,41.095c1.95,1.937,4.498,2.904,7.047,2.904 c2.552,0,5.104-0.971,7.055-2.913l41.206-41.02c1.135,0.569,2.319,1.08,3.561,1.512c0.146,0.051,0.292,0.098,0.439,0.142 L445,360.713V480z M492,480h-27V366.646l9.213,2.733c10.154,3.628,17.787,13.63,17.787,23.353V480z"/> </g> </g><g> <g> <path d="M380.319,177.349c-6.249,0-11.333,5.084-11.333,11.333s5.084,11.333,11.333,11.333c6.249,0,11.333-5.084,11.333-11.333 C391.652,182.433,386.568,177.349,380.319,177.349z"/> </g> </g><g> <g> <path d="M297.757,177.349c-6.249,0-11.333,5.084-11.333,11.333s5.084,11.333,11.333,11.333c6.249,0,11.333-5.084,11.333-11.333 S304.006,177.349,297.757,177.349z"/> </g> </g><g> <g> <path d="M254.652,369.568c-5.522,0-10,4.477-10,10v0.141c0,5.523,4.478,10,10,10c5.522,0,10-4.477,10-10v-0.141 C264.652,374.045,260.174,369.568,254.652,369.568z"/> </g> </g><g> <g> <path d="M423.306,369.568c-5.522,0-10,4.477-10,10v0.141c0,5.523,4.477,10,10,10c5.522,0,10-4.477,10-10v-0.141 C433.306,374.045,428.828,369.568,423.306,369.568z"/> </g> </g><g> <g> <path d="M356.648,235.28c-3.409-4.012-9.307-4.663-13.496-1.613c-0.333,0.153-1.634,0.667-4.113,0.667 c-2.373,0-3.617-0.469-3.956-0.62c-4.14-3.063-10.002-2.49-13.457,1.448c-3.644,4.151-3.231,10.469,0.919,14.112 c1.353,1.187,6.539,5.06,16.494,5.06c9.87-0.001,15.101-3.795,16.468-4.958C359.715,245.798,360.226,239.487,356.648,235.28z"/> </g> </g></symbol><symbol id="chat" viewBox="0 0 511.999 511.999"><title>chat</title><g> <g> <path d="M372.29,50.758H28.831C12.933,50.758,0,63.691,0,79.588v206.056c0,15.897,12.933,28.831,28.831,28.831h22.271v76.71 c0,4.884,2.942,9.289,7.456,11.159c1.494,0.62,3.064,0.92,4.62,0.92c3.144,0,6.232-1.228,8.543-3.538l85.251-85.25h17.104 c6.671,0,12.078-5.407,12.078-12.078c0-6.672-5.409-12.079-12.078-12.079c0,0-22.69,0.016-22.927,0.04 c-2.812,0.191-5.572,1.349-7.722,3.498l-68.169,68.169c0,0-0.021-60.392-0.06-60.705c-0.545-6.166-5.717-11.002-12.024-11.002 H28.831c-2.578,0-4.674-2.097-4.674-4.674V79.588c0-2.578,2.097-4.674,4.674-4.674H372.29c2.578,0,4.674,2.097,4.674,4.674v79.055 c0,6.671,5.409,12.078,12.078,12.078s12.078-5.407,12.078-12.078V79.588C401.12,63.691,388.187,50.758,372.29,50.758z"/> </g> </g><g> <g> <path d="M483.169,198.492H242.754c-15.897,0-28.831,12.933-28.831,28.831v140.57c0,15.897,12.933,28.831,28.831,28.831h150.514 l60.98,60.98c2.311,2.311,5.4,3.538,8.543,3.538c1.556,0,3.126-0.301,4.62-0.92c4.512-1.87,7.456-6.273,7.456-11.159v-52.44h8.301 c15.897,0,28.831-12.933,28.831-28.831V227.322C512,211.425,499.067,198.492,483.169,198.492z M487.844,367.893 c0,2.577-2.097,4.674-4.674,4.674h-20.376c-6.356,0-11.554,4.912-12.031,11.147c-0.031,0.264-0.051,36.29-0.051,36.29 l-43.854-43.855c-0.046-0.046-0.094-0.089-0.14-0.135c-0.172-0.168-0.335-0.314-0.489-0.445c-2.126-1.864-4.903-3.003-7.951-3.003 H242.754c-2.578,0-4.674-2.097-4.674-4.674v-140.57c0-2.578,2.097-4.674,4.674-4.674h240.416c2.577,0,4.674,2.097,4.674,4.674 V367.893z"/> </g> </g><g> <g> <path d="M362.964,285.53c-6.667,0-12.078,5.411-12.078,12.078c0,6.667,5.411,12.078,12.078,12.078 c6.668,0,12.078-5.411,12.078-12.078C375.042,290.941,369.631,285.53,362.964,285.53z"/> </g> </g><g> <g> <path d="M310.472,130.611c0,0-219.822,0-219.822,0c-6.67,0-12.078,5.407-12.078,12.078s5.409,12.078,12.078,12.078h219.822 c6.67,0,12.078-5.407,12.078-12.078S317.142,130.611,310.472,130.611z"/> </g> </g><g> <g> <path d="M174.075,210.465H90.65c-6.67,0-12.078,5.407-12.078,12.078c0,6.671,5.409,12.078,12.078,12.078h83.425 c6.671,0,12.078-5.407,12.078-12.078S180.745,210.465,174.075,210.465z"/> </g> </g><g> <g> <path d="M306.837,285.53c-6.666,0-12.078,5.411-12.078,12.078c0,6.667,5.412,12.078,12.078,12.078 c6.668,0,12.078-5.411,12.078-12.078C318.915,290.941,313.505,285.53,306.837,285.53z"/> </g> </g><g> <g> <path d="M419.079,285.53c-6.667,0-12.078,5.411-12.078,12.078c0,6.667,5.411,12.078,12.078,12.078 c6.668,0,12.078-5.411,12.078-12.078C431.157,290.941,425.746,285.53,419.079,285.53z"/> </g> </g></symbol><symbol id="sprout" viewBox="0 0 512 512"><title>sprout</title><g> <g> <path d="M64,339.879c-5.522,0-10,4.477-10,10v0.129c0,5.523,4.478,10,10,10c5.522,0,10-4.477,10-10v-0.129 C74,344.356,69.522,339.879,64,339.879z"/> </g> </g><g> <g> <path d="M501.138,313.526c-13.194-13.197-33.922-15.082-49.284-4.49c-0.272,0.188-0.536,0.391-0.789,0.605l-25.961,22.012 c-31.695-41.744-79.935-67.439-132.166-70.409v-68.842c20.509-1.068,66.628-6.931,93.769-37.277 c32.227-36.051,26.236-94.229,24.67-105.56c-0.112-2.595-1.23-5.144-3.317-7.014c-4.11-3.683-10.43-3.339-14.117,0.771 c-0.156,0.174-16.93,17.849-63.884,33.522c-21.397,7.142-37.504,23.28-47.132,47.005c-9.628-23.725-25.735-39.862-47.132-47.005 c-46.947-15.671-63.775-33.407-63.884-33.522c-3.687-4.11-9.998-4.445-14.108-0.762c-2.043,1.83-3.155,4.314-3.306,6.854 c-1.532,10.954-7.723,69.496,24.65,105.712c27.154,30.361,73.306,36.213,93.792,37.277v68.833 c-27.487,1.502-54.18,9.283-78.07,22.802l-1.324-1.33c-11.333-11.332-26.4-17.573-42.427-17.573H74v-5.385c0-5.523-4.478-10-10-10 H10c-5.522,0-10,4.477-10,10v180c0,5.523,4.478,10,10,10h54c5.522,0,10-4.477,10-10v-4.669l26.275,15.913 C122.964,464.736,148.979,472,175.506,472h158.126c28.366,0,56.128-9.833,78.17-27.687c0.1-0.081,0.198-0.164,0.295-0.248 l86.916-76.128c7.823-6.688,12.544-16.415,12.957-26.701C512.384,330.923,508.436,320.823,501.138,313.526z M336.39,95.816 c27.001-9.013,45.147-18.839,56.529-26.395c0.448,19.604-2.229,51.238-21.122,72.373c-21.668,24.228-60.564,29.453-78.731,30.548 C294.06,151.99,300.43,107.819,336.39,95.816z M194.055,141.796c-18.893-21.136-21.571-52.771-21.123-72.375 c11.382,7.556,29.528,17.382,56.529,26.395c35.96,12.004,42.33,56.175,43.324,76.527 C254.636,171.249,215.728,166.028,194.055,141.796z M282.75,280.943c50.185,0,97.122,23.67,127.071,63.667l-25.651,21.75 c-1.539-5.874-4.507-11.318-8.763-15.574c-5.667-5.666-13.2-8.787-21.213-8.787h-93.326c-5.342,0-10.364-2.08-14.125-5.841 l-37.174-37.349C232.071,287.097,257.138,280.943,282.75,280.943z M485.989,352.758c-0.036,0.03-0.072,0.061-0.107,0.092 l-86.814,76.039C380.599,443.794,357.368,452,333.632,452H175.506c-22.874,0-45.306-6.263-64.869-18.113L74,411.698v-28.09 c0-5.523-4.478-10-10-10c-5.522,0-10,4.477-10,10v46.141H20v-160h34v44.395c0,5.523,4.478,10,10,10c5.522,0,10-4.477,10-10v-29.01 h77.116c10.685,0,20.729,4.161,28.268,11.699l53.2,53.45c7.555,7.555,17.6,11.715,28.284,11.715h93.326 c2.671,0,5.182,1.04,7.07,2.929c4.585,4.584,4.955,12.137,2.976,16.916c-0.506,1.223-1.09,2.146-1.699,2.854 c0,0-2.05,2.259-5.009,2.259H224.75c-6.91,0-13.624-1.992-19.417-5.759l-32.217-20.954c-4.627-3.015-10.822-1.706-13.837,2.922 c-3.014,4.628-1.705,10.823,2.923,13.837l32.227,20.96c9.046,5.884,19.531,8.994,30.321,8.994h132.782 c7.275,0,13.775-2.747,18.691-7.639l87.355-74.067c7.374-4.834,17.154-3.848,23.417,2.416c3.412,3.411,5.185,7.945,4.99,12.766 C491.792,345.255,489.663,349.631,485.989,352.758z"/> </g> </g></symbol><symbol id="discussion" viewBox="0 0 512 512"><title>discussion</title><g> <g> <path d="M245.114,350.058l-18.654-37.308c-0.193-36.754-30.154-66.596-66.953-66.596H88.615 c-32.575,0-59.077,26.502-59.077,59.077v70.689c0,20.608,6.294,40.938,17.833,57.949l-36.228,63.4 c-1.742,3.047-1.729,6.791,0.034,9.826c1.76,3.037,5.005,4.904,8.515,4.904h177.231c3.454,0,6.655-1.81,8.436-4.768 c1.781-2.96,1.882-6.635,0.265-9.688l-21.304-40.213c13.334-0.795,25.694-8.571,31.942-21.068l9.161-18.322 c0.683-1.367,1.04-2.874,1.04-4.403v-35.305l16.808-16.808C246.267,358.427,247.009,353.849,245.114,350.058z M209.653,367.192 c-1.846,1.847-2.884,4.351-2.884,6.962v37.061l-8.122,16.243c-3.986,7.969-13.098,11.982-21.665,9.535l-8.084-2.308 c-3.795-1.082-7.87,0.204-10.354,3.27c-2.484,3.067-2.897,7.321-1.05,10.808l23.071,43.545H36.659l30.967-54.192 c1.981-3.467,1.672-7.786-0.782-10.936c-11.359-14.576-17.614-32.78-17.614-51.259v-60.843h49.231 c5.438,0,9.846-4.409,9.846-9.846s-4.408-9.846-9.846-9.846H50.477c4.383-16.968,19.82-29.539,38.138-29.539h70.892 c26.06,0,47.262,21.202,47.262,47.262v1.969c0,1.529,0.355,3.037,1.04,4.403l16.519,33.038L209.653,367.192z"/> </g> </g><g> <g> <path d="M499.511,248.76l-34.883-61.045c11.54-17.01,17.833-37.341,17.833-57.949v-70.69C482.462,26.502,455.96,0,423.385,0 h-70.892c-36.799,0-66.76,29.843-66.953,66.597l-18.654,37.308c-1.895,3.791-1.152,8.368,1.844,11.365l16.808,16.808v35.305 c0,1.529,0.355,3.036,1.04,4.403l9.161,18.322c6.248,12.497,18.608,20.274,31.942,21.067l-18.53,34.977h-10.32 c-12.759,0-23.138,10.38-23.138,23.138v90.936l-36.501,36.501c-3.845,3.845-3.845,10.08,0,13.925l36.501,36.502v12.167 c0,12.759,10.38,23.138,23.138,23.138h190.031c12.759,0,23.138-10.38,23.138-23.138V269.292 C512,260.373,506.923,252.621,499.511,248.76z M313.353,181.304l-8.122-16.243V128c0-2.611-1.038-5.115-2.884-6.962 l-14.675-14.674l16.519-33.038c0.684-1.367,1.04-2.874,1.04-4.403v-1.969c0-26.06,21.202-47.262,47.262-47.262h70.892 c18.318,0,33.755,12.571,38.138,29.538h-47.984c-5.438,0-9.846,4.409-9.846,9.846c0,5.437,4.408,9.846,9.846,9.846h49.231v60.843 c0,18.479-6.255,36.683-17.613,51.259c-2.455,3.15-2.763,7.47-0.782,10.936l30.966,54.192H331.435l23.07-43.546 c1.848-3.488,1.435-7.74-1.049-10.807c-2.484-3.066-6.56-4.352-10.354-3.27l-8.083,2.308 C326.448,193.286,317.338,189.275,313.353,181.304z M492.308,459.323c0,1.9-1.546,3.446-3.446,3.446H298.831 c-1.9,0-3.446-1.546-3.446-3.446v-16.246c0-2.611-1.038-5.115-2.884-6.962l-32.422-32.422l32.422-32.422 c1.846-1.847,2.884-4.351,2.884-6.962v-95.015c0-1.9,1.546-3.446,3.446-3.446h16.246h173.785c1.9,0,3.446,1.546,3.446,3.446 V459.323z"/> </g> </g><g> <g> <path d="M272.808,150.576l-36.501-36.502V23.138C236.308,10.38,225.928,0,213.169,0H23.138C10.38,0,0,10.38,0,23.138v190.031 c0,12.759,10.38,23.138,23.138,23.138h190.031c12.759,0,23.138-10.38,23.138-23.138v-12.167l36.501-36.501 C276.653,160.657,276.653,154.422,272.808,150.576z M219.499,189.961c-1.846,1.847-2.884,4.351-2.884,6.962v16.246 c0,1.9-1.546,3.446-3.446,3.446H23.138c-1.9,0-3.446-1.546-3.446-3.446V23.138c0-1.9,1.546-3.446,3.446-3.446h190.031 c1.9,0,3.446,1.546,3.446,3.446v95.015c0,2.611,1.038,5.115,2.884,6.962l32.422,32.422L219.499,189.961z"/> </g> </g><g> <g> <path d="M137.649,303.311c-0.118-0.63-0.315-1.25-0.561-1.841c-0.246-0.601-0.551-1.171-0.906-1.702 c-0.354-0.543-0.768-1.045-1.221-1.498c-0.453-0.453-0.955-0.866-1.497-1.221c-0.532-0.364-1.103-0.66-1.694-0.906 c-0.601-0.246-1.221-0.443-1.851-0.56c-1.27-0.257-2.57-0.257-3.84,0c-0.63,0.117-1.25,0.314-1.841,0.56 c-0.601,0.246-1.172,0.542-1.703,0.906c-0.542,0.354-1.044,0.768-1.497,1.221s-0.866,0.955-1.221,1.498 c-0.354,0.532-0.66,1.102-0.906,1.702c-0.246,0.592-0.443,1.211-0.561,1.841c-0.128,0.63-0.197,1.28-0.197,1.92 c0,0.639,0.069,1.29,0.197,1.92c0.118,0.63,0.315,1.25,0.561,1.851c0.246,0.591,0.551,1.162,0.906,1.693 c0.354,0.542,0.768,1.044,1.221,1.497c0.453,0.454,0.955,0.867,1.497,1.221c0.532,0.354,1.103,0.66,1.703,0.906 c0.591,0.246,1.211,0.443,1.841,0.571c0.63,0.128,1.28,0.187,1.92,0.187c0.64,0,1.29-0.06,1.92-0.187 c0.63-0.128,1.25-0.325,1.841-0.571c0.601-0.246,1.172-0.551,1.703-0.906c0.542-0.353,1.044-0.767,1.497-1.221 c0.453-0.453,0.867-0.955,1.221-1.497c0.354-0.532,0.66-1.103,0.906-1.693c0.246-0.601,0.443-1.221,0.561-1.851 c0.128-0.631,0.197-1.281,0.197-1.92C137.846,304.591,137.777,303.94,137.649,303.311z"/> </g> </g><g> <g> <path d="M393.659,57.157c-0.128-0.63-0.325-1.25-0.571-1.851c-0.246-0.592-0.551-1.162-0.906-1.694 c-0.354-0.543-0.768-1.045-1.221-1.498c-0.453-0.453-0.955-0.866-1.497-1.221c-0.532-0.364-1.103-0.66-1.694-0.906 c-0.601-0.246-1.221-0.443-1.851-0.56c-1.26-0.257-2.58-0.257-3.84,0c-0.63,0.117-1.25,0.314-1.851,0.56 c-0.591,0.246-1.162,0.542-1.694,0.906c-0.542,0.354-1.044,0.768-1.497,1.221c-0.453,0.453-0.867,0.955-1.221,1.498 c-0.354,0.532-0.66,1.102-0.906,1.694c-0.246,0.601-0.433,1.221-0.561,1.851s-0.197,1.28-0.197,1.92 c0,0.639,0.069,1.29,0.197,1.92c0.128,0.63,0.315,1.25,0.561,1.84c0.246,0.601,0.551,1.172,0.906,1.703 c0.354,0.542,0.768,1.044,1.221,1.497c0.453,0.454,0.955,0.867,1.497,1.221c0.532,0.354,1.103,0.66,1.694,0.906 c0.601,0.246,1.221,0.443,1.851,0.561c0.63,0.128,1.28,0.197,1.92,0.197s1.29-0.069,1.92-0.197c0.63-0.118,1.25-0.315,1.851-0.561 c0.591-0.246,1.162-0.551,1.694-0.906c0.542-0.354,1.044-0.767,1.497-1.221c0.453-0.453,0.866-0.955,1.221-1.497 c0.354-0.532,0.66-1.103,0.906-1.703c0.246-0.591,0.443-1.21,0.571-1.84c0.128-0.63,0.187-1.281,0.187-1.92 C393.846,58.437,393.787,57.786,393.659,57.157z"/> </g> </g><g> <g> <path d="M187.077,39.385H49.231c-5.438,0-9.846,4.409-9.846,9.846c0,5.437,4.408,9.846,9.846,9.846h137.846 c5.438,0,9.846-4.409,9.846-9.846C196.923,43.794,192.515,39.385,187.077,39.385z"/> </g> </g><g> <g> <path d="M187.077,88.615H49.231c-5.438,0-9.846,4.409-9.846,9.846c0,5.437,4.408,9.846,9.846,9.846h137.846 c5.438,0,9.846-4.409,9.846-9.846C196.923,93.024,192.515,88.615,187.077,88.615z"/> </g> </g><g> <g> <path d="M118.155,137.846H49.231c-5.438,0-9.846,4.409-9.846,9.846c0,5.437,4.408,9.846,9.846,9.846h68.924 c5.438,0,9.846-4.409,9.846-9.846C128.001,142.255,123.593,137.846,118.155,137.846z"/> </g> </g><g> <g> <path d="M462.769,285.538H324.923c-5.438,0-9.846,4.409-9.846,9.846c0,5.437,4.408,9.846,9.846,9.846h137.846 c5.438,0,9.846-4.409,9.846-9.846C472.615,289.948,468.207,285.538,462.769,285.538z"/> </g> </g><g> <g> <path d="M462.769,334.769H324.923c-5.438,0-9.846,4.409-9.846,9.846c0,5.437,4.408,9.846,9.846,9.846h137.846 c5.438,0,9.846-4.409,9.846-9.846C472.615,339.178,468.207,334.769,462.769,334.769z"/> </g> </g><g> <g> <path d="M393.846,384h-68.923c-5.438,0-9.846,4.409-9.846,9.846c0,5.437,4.408,9.846,9.846,9.846h68.923 c5.438,0,9.846-4.409,9.846-9.846C403.692,388.409,399.284,384,393.846,384z"/> </g> </g></symbol><symbol id="wallet" viewBox="0 0 512 512"><title>wallet</title><g> <g> <path d="M253.614,333.891c-14.336,0-25.999,11.663-25.999,25.999s11.664,25.999,25.999,25.999s25.999-11.663,25.999-25.999 S267.951,333.891,253.614,333.891z M253.614,365.89c-3.309,0-6-2.691-6-6s2.691-6,6-6c3.309,0,6,2.691,6,6 S256.923,365.89,253.614,365.89z"/> </g> </g><g> <g> <path d="M333.878,300.75c-1.86-1.86-4.44-2.931-7.07-2.931c-2.63,0-5.21,1.07-7.07,2.931c-1.87,1.859-2.93,4.439-2.93,7.069 c0,2.631,1.06,5.211,2.93,7.07c1.86,1.861,4.44,2.93,7.07,2.93c2.63,0,5.21-1.069,7.07-2.93c1.86-1.859,2.93-4.439,2.93-7.07 C336.808,305.189,335.738,302.609,333.878,300.75z"/> </g> </g><g> <g> <path d="M461.994,143.987h-10.781L310.158,2.932c-3.905-3.905-10.238-3.905-14.142,0L259.88,39.069L115.356,0.344 c-5.335-1.431-10.819,1.736-12.248,7.071L66.516,143.987H42.006c-23.158,0-41.999,18.84-41.999,41.999 c0,0.555,0.021,1.106,0.042,1.656c-0.023,0.275-0.042,0.551-0.042,0.832v273.528C0.007,489.57,22.437,512,50.006,512h357.989 c0.155,0,0.307-0.01,0.462-0.012h53.536c27.569,0,49.998-22.429,49.998-49.999V193.985 C511.992,166.415,489.563,143.987,461.994,143.987z M453.06,163.986h8.934c16.542,0,29.999,13.458,29.999,29.999v80.143 c0,13.069-10.633,23.701-23.701,23.701h-10.298v-39.846c0-27.221-21.869-49.415-48.959-49.973L453.06,163.986z M269.94,57.293 c0.001-0.001,0.002-0.003,0.003-0.004l33.145-33.145L433.854,154.91l-52.75,52.75h-18.294l23.928-23.929 c3.905-3.905,3.905-10.237,0-14.142c-8.095-8.095-8.095-21.265,0-29.36c3.905-3.905,3.905-10.237,0-14.143L331.91,71.26 c-3.905-3.905-10.237-3.905-14.143,0c-8.095,8.096-21.266,8.096-29.36,0c-3.905-3.905-10.238-3.905-14.142,0l-136.4,136.401 h-18.294L269.94,57.293z M240.511,170.091c-22.828,0-41.954,16.119-46.619,37.57h-27.745L282.213,91.595 c12.811,7.636,28.937,7.636,41.748,0l42.441,42.441c-7.635,12.81-7.635,28.938,0,41.748l-31.877,31.877H287.13 C282.465,186.209,263.34,170.091,240.511,170.091z M266.297,207.661h-51.568c4.058-10.277,14.083-17.57,25.784-17.57 S262.238,197.384,266.297,207.661z M109.002,189.946l26.482-98.833c7.261,0.117,14.484-1.737,20.953-5.474 c6.47-3.735,11.676-9.046,15.217-15.409l45.005,12.059L151.348,147.6L109.002,189.946z M119.839,22.25L243.55,55.398 L232.989,65.96l-64.63-17.318c-2.563-0.687-5.292-0.327-7.588,0.999c-2.297,1.326-3.973,3.51-4.659,6.072 c-1.436,5.356-4.871,9.833-9.673,12.606c-4.803,2.773-10.398,3.509-15.755,2.074c-5.333-1.43-10.818,1.736-12.247,7.071 L83.463,207.985H70.071L119.839,22.25z M42.006,163.986h19.149l-11.79,43.999h-7.36c-12.131,0-21.999-9.869-21.999-21.999 C20.007,173.855,29.877,163.986,42.006,163.986z M491.993,461.989c0,16.542-13.458,29.999-29.999,29.999h-14.018 c6.287-8.36,10.018-18.745,10.018-29.987v-40.176h6c10.444,0,20.111-3.363,27.999-9.049V461.989z M491.993,373.827 c0,15.439-12.561,27.999-27.999,27.999H254c-23.158,0-41.999-18.84-41.999-41.999s18.84-41.999,41.999-41.999h30.306 c5.523,0,10-4.478,10-10s-4.477-10-10-10H254c-34.186,0-61.998,27.812-61.998,61.998c0,34.186,27.812,61.998,61.998,61.998 h183.995v40.176c0,16.387-13.209,29.75-29.537,29.999H68.005V379.39c0-5.522-4.477-10-10-10s-10,4.478-10,10v112.536 c-15.612-1.033-27.999-14.056-27.999-29.924V221.742c6.403,3.954,13.938,6.242,21.999,6.242h365.989 c16.542,0,29.999,13.458,29.999,29.999v39.846H365.69c-5.523,0-10,4.478-10,10s4.477,10,10,10h102.602 c8.733,0,16.869-2.585,23.701-7.015V373.827z"/> </g> </g><g> <g> <path d="M65.076,333.318c-1.86-1.859-4.44-2.93-7.07-2.93s-5.21,1.07-7.07,2.93c-1.86,1.86-2.93,4.44-2.93,7.07 c0,2.63,1.07,5.21,2.93,7.07c1.86,1.86,4.44,2.93,7.07,2.93c2.63,0,5.21-1.07,7.07-2.93c1.86-1.86,2.93-4.44,2.93-7.07 C68.005,337.758,66.935,335.178,65.076,333.318z"/> </g> </g></symbol><symbol id="handshake" viewBox="0 0 512 512"><title>handshake</title><g> <g> <path d="M60.075,345.339c-1.86-1.87-4.44-2.93-7.07-2.93c-2.63,0-5.21,1.06-7.07,2.93c-1.86,1.86-2.93,4.43-2.93,7.07 c0,2.63,1.07,5.21,2.93,7.069c1.86,1.86,4.44,2.931,7.07,2.931c2.63-0.001,5.21-1.071,7.07-2.931 c1.86-1.859,2.93-4.439,2.93-7.069C63.005,349.767,61.935,347.199,60.075,345.339z"/> </g> </g><g> <g> <path d="M511.659,189.197c-1.416-5.339-6.889-8.521-12.228-7.104l-9.438,2.501v-15.542c6.603-3.15,12.262-8.178,16.256-14.687 c7.086-11.544,7.657-25.645,1.525-37.725l-17.781-35.03V28.007c0-15.439-12.561-27.999-27.999-27.999H50.006 c-15.439,0-27.999,12.561-27.999,27.999v53.605l-17.782,35.03c-6.131,12.079-5.561,26.181,1.525,37.725 c3.995,6.509,9.654,11.537,16.257,14.687v15.531l-9.437-2.503c-5.337-1.414-10.813,1.764-12.229,7.103 c-1.416,5.338,1.764,10.813,7.103,12.229l115.204,30.554l-4.322,16.131c-0.003,0.012-0.006,0.024-0.01,0.036L80.208,390.349 l-67.613-18.117c-5.336-1.432-10.818,1.736-12.248,7.071c-1.43,5.334,1.736,10.817,7.071,12.247l14.588,3.909v106.535 c0,5.522,4.477,10,10,10h447.987c5.523,0,10-4.478,10-10V395.455l14.586-3.905c5.335-1.429,8.502-6.911,7.073-12.246 c-1.429-5.335-6.911-8.5-12.244-7.074l-67.676,18.12l-42.439-158.383l115.263-30.543 C509.892,200.011,513.074,194.536,511.659,189.197z M42.006,28.007L42.006,28.007c0-4.411,3.589-8,8-8h411.988 c4.411,0,8,3.589,8,8v9h-62.877c-5.523,0-10,4.478-10,10s4.477,10,10,10h62.877v17H42.006V28.007z M421.995,94.005v27.492 c0,17.262-14.044,31.306-31.306,31.306h-5.386c-17.262,0-31.306-14.044-31.306-31.306V94.005H421.995z M333.997,94.005v27.492 c0,17.262-14.044,31.306-31.306,31.306h-5.386c-17.263,0-31.306-14.044-31.306-31.306V94.005H333.997z M246,94.005v27.492 c0,17.262-14.044,31.306-31.306,31.306h-5.386c-17.263,0-31.306-14.044-31.306-31.306V94.005H246z M158.002,94.005v27.492 c0,17.262-14.044,31.306-31.306,31.306h-5.386c-17.262,0-31.306-14.044-31.306-31.306V94.005H158.002z M22.795,143.906 c-3.472-5.657-3.741-12.294-0.737-18.21l16.087-31.689h31.861v27.492c0,17.263-14.044,31.306-31.306,31.306 C32.064,152.804,26.267,149.561,22.795,143.906z M42.006,491.994v-19.979h49.64c5.523,0,10-4.478,10-10s-4.477-10-10-10h-49.64 v-51.199l42.685,11.438c0.852,0.229,1.722,0.341,2.588,0.341c1.74,0,3.467-0.454,5-1.34c1.164-0.672,2.167-1.566,2.964-2.616 l35.781,9.762c-0.455,3.759-0.195,7.608,0.815,11.376c2.074,7.74,7.038,14.21,13.977,18.216c4.623,2.669,9.753,4.032,14.952,4.032 c2.067,0,4.143-0.224,6.204-0.659c2.221,6.775,6.839,12.79,13.485,16.627c4.623,2.669,9.753,4.032,14.952,4.032 c2.062,0,4.133-0.223,6.188-0.655c2.3,7.033,7.044,12.896,13.5,16.622c4.357,2.516,9.167,3.855,14.059,4.003H42.006z M152.155,417.013l12-20.784c1.335-2.313,3.492-3.968,6.072-4.659c0.861-0.23,1.735-0.345,2.604-0.345 c1.732,0,3.443,0.454,4.984,1.344c4.774,2.758,6.417,8.886,3.66,13.661l-12,20.783c-1.335,2.313-3.492,3.969-6.071,4.659 c-2.58,0.693-5.275,0.336-7.589-0.999c-2.313-1.336-3.967-3.492-4.659-6.071C150.465,422.021,150.82,419.326,152.155,417.013z M186.794,437.012l12-20.783c1.851-3.205,5.218-4.999,8.678-4.999c1.695,0,3.413,0.432,4.983,1.338 c4.774,2.758,6.417,8.886,3.66,13.661l-12,20.783c-1.336,2.313-3.493,3.969-6.073,4.659c-2.579,0.692-5.274,0.337-7.588-0.999 C185.68,447.915,184.038,441.787,186.794,437.012z M230.939,491.993c1.766-0.052,3.537-0.256,5.296-0.626 c0.069,0.21,0.145,0.417,0.218,0.626H230.939z M250.755,446.228l-12,20.783c-1.336,2.313-3.492,3.969-6.072,4.659 c-2.581,0.692-5.275,0.336-7.588-0.999c-2.313-1.336-3.968-3.492-4.659-6.072c-0.691-2.58-0.338-5.275,0.998-7.588l12-20.783 c1.851-3.205,5.218-4.999,8.678-4.999c1.695,0,3.413,0.432,4.983,1.338C251.869,435.325,253.512,441.453,250.755,446.228z M285.395,466.227l-12,20.783c-1.336,2.313-3.492,3.969-6.072,4.659c-0.645,0.173-1.297,0.281-1.948,0.324h-1.18v0 c-1.552-0.083-3.076-0.523-4.462-1.323c-2.313-1.336-3.967-3.492-4.659-6.071c-0.691-2.58-0.336-5.275,0.999-7.589l12-20.783 c1.851-3.205,5.218-4.998,8.678-4.998c1.692,0,3.407,0.43,4.976,1.333l0.017,0.01C286.511,455.333,288.15,461.455,285.395,466.227 z M311.755,481.539l-0.058,0.102c-2.743,4.753-8.848,6.396-13.607,3.661l-0.462-0.265l5.086-8.81 c1.739-3.013,2.888-6.206,3.495-9.446l1.931,1.121C312.884,470.657,314.512,476.763,311.755,481.539z M424.652,412.599 c0.856,0,1.727-0.111,2.593-0.343l42.749-11.446v91.183h-0.001H328.794c0.077-0.128,0.161-0.248,0.236-0.378l0.058-0.102 c3.828-6.629,4.819-14.136,3.36-21.105c7.03-2.296,12.888-7.035,16.615-13.49c3.831-6.635,4.823-14.14,3.365-21.106 c1.82-0.595,3.561-1.351,5.206-2.26l60.016-23.833C419.496,411.532,422.004,412.599,424.652,412.599z M411.14,390.783 l-38.111,15.136c-0.076-1.599-0.275-3.187-0.602-4.748c7.027-2.298,12.885-7.04,16.633-13.534 c8.264-14.313,3.342-32.681-10.971-40.944l-41.086-23.721c-4.782-2.762-10.899-1.123-13.66,3.66 c-2.762,4.783-1.123,10.898,3.66,13.66l41.086,23.721c4.763,2.75,6.4,8.862,3.625,13.67c-1.332,2.308-3.483,3.957-6.056,4.646 c-2.572,0.69-5.261,0.338-7.569-0.996l-41.086-23.72c-4.783-2.76-10.899-1.123-13.66,3.66c-2.762,4.783-1.123,10.899,3.66,13.66 l41.086,23.72c4.763,2.75,6.401,8.862,3.694,13.552c-0.015,0.024-0.055,0.094-0.069,0.118c-0.771,1.335-1.821,2.441-3.063,3.277 l-0.046,0.018c-0.68,0.27-1.31,0.61-1.894,1.002c-0.343,0.134-0.693,0.254-1.054,0.35c-2.572,0.691-5.26,0.336-7.568-0.996 l-41.086-23.721c-4.782-2.761-10.899-1.124-13.66,3.66c-2.762,4.783-1.123,10.898,3.66,13.66l41.086,23.721 c4.763,2.75,6.4,8.862,3.651,13.625c-1.334,2.312-3.49,3.963-6.069,4.65c-2.578,0.688-5.269,0.329-7.577-1.011l-26.341-15.299 c-0.003-0.001-0.005-0.002-0.008-0.004c-0.005-0.003-0.009-0.006-0.014-0.009c0,0,0,0-0.001,0 c-6.649-3.839-14.171-4.831-21.151-3.363c-2.219-6.779-6.839-12.798-13.488-16.636h-0.001c-6.649-3.839-14.171-4.83-21.151-3.363 c-2.219-6.779-6.839-12.798-13.488-16.636c-6.65-3.839-14.172-4.831-21.152-3.364c-2.22-6.779-6.839-12.797-13.488-16.635 c-6.94-4.008-15.025-5.071-22.764-2.997c-7.741,2.074-14.21,7.039-18.215,13.979l-7.859,13.612l-37.841-10.324l35.167-131.245 l66.696-23.703c6.607-2.348,13.833-1.606,19.825,2.032l26.21,15.914l-20.274,32.702c-8.032,12.955-6.071,29.487,4.769,40.205 c6.302,6.23,14.566,9.344,22.831,9.344c8.298-0.001,16.597-3.14,22.903-9.414l50.454-50.188 c3.916-3.896,3.933-10.227,0.038-14.143c-3.896-3.916-10.227-3.932-14.142-0.037l-50.453,50.188 c-4.836,4.813-12.718,4.823-17.568,0.028c-4.164-4.118-4.917-10.469-1.833-15.445l27.424-44.236 c5.642-9.1,14.339-15.986,24.49-19.391l18.732-6.282c7.351-2.467,15.443-1.703,22.202,2.092l34.017,19.098L411.14,390.783z M469.993,189.895l-95.517,25.311c-2.568,0.681-4.76,2.354-6.092,4.654c-0.274,0.474-0.497,0.97-0.689,1.475l-19.297-10.835 c-11.676-6.555-25.655-7.873-38.352-3.614l-18.732,6.282c-12.518,4.198-23.485,12.096-31.46,22.519l-26.649-16.182 c-11.155-6.772-24.604-8.153-36.901-3.782l-53.713,19.089l1.971-7.355c0.688-2.565,0.326-5.3-1.005-7.599 c-1.331-2.299-3.522-3.974-6.09-4.655l-95.46-25.317v-17.203c15.565-0.996,29.263-8.957,37.999-20.799 c9.351,12.676,24.381,20.917,41.306,20.917h5.386c16.925,0,31.956-8.242,41.306-20.917c9.351,12.676,24.381,20.917,41.306,20.917 h5.386c16.924,0,31.956-8.242,41.306-20.917c9.351,12.676,24.381,20.917,41.306,20.917h5.386c16.924,0,31.956-8.242,41.306-20.917 c9.351,12.676,24.381,20.917,41.306,20.917h5.386c16.924,0,31.956-8.242,41.306-20.917c8.736,11.843,22.433,19.803,37.999,20.799 V189.895z M473.3,152.803c-17.263,0-31.306-14.044-31.306-31.306V94.005h31.861l16.087,31.689 c3.003,5.918,2.735,12.555-0.737,18.211C485.733,149.56,479.936,152.803,473.3,152.803z"/> </g> </g><g> <g> <path d="M466.003,345.338c-1.86-1.87-4.44-2.93-7.07-2.93c-2.63,0-5.21,1.06-7.07,2.93c-1.86,1.86-2.93,4.43-2.93,7.07 c0,2.63,1.07,5.199,2.93,7.069c1.86,1.86,4.44,2.931,7.07,2.931c2.63,0,5.21-1.07,7.07-2.931c1.86-1.87,2.93-4.439,2.93-7.069 C468.933,349.766,467.863,347.198,466.003,345.338z"/> </g> </g><g> <g> <path d="M134.913,454.945c-1.86-1.861-4.44-2.931-7.07-2.931c-2.63,0-5.21,1.07-7.07,2.931c-1.86,1.859-2.93,4.439-2.93,7.069 c0,2.63,1.07,5.21,2.93,7.07c1.86,1.86,4.44,2.93,7.07,2.93c2.64,0,5.21-1.069,7.07-2.93c1.86-1.86,2.93-4.44,2.93-7.07 C137.843,459.384,136.773,456.804,134.913,454.945z"/> </g> </g><g> <g> <path d="M377.986,39.937c-1.86-1.86-4.44-2.93-7.07-2.93s-5.21,1.069-7.07,2.93c-1.86,1.86-2.93,4.44-2.93,7.07 s1.07,5.21,2.93,7.069c1.86,1.861,4.44,2.931,7.07,2.931s5.21-1.07,7.07-2.931c1.86-1.859,2.93-4.439,2.93-7.069 S379.846,41.796,377.986,39.937z"/> </g> </g></symbol><symbol id="invoice" viewBox="0 0 499.312 499.312"><title>invoice</title><path d="M409.656,176c48.52,0,88-39.48,88-88s-39.48-88-88-88c-48.52,0-88,39.48-88,88S361.136,176,409.656,176z M409.656,16 c39.696,0,72,32.296,72,72s-32.304,72-72,72s-72-32.296-72-72S369.96,16,409.656,16z" fill="#008080"/><path d="M417.656,112h-16c-4.408,0-8-3.584-8-8h-16c0,13.232,10.768,24,24,24v16h16v-16c13.232,0,24-10.768,24-24 s-10.768-24-24-24h-16c-4.408,0-8-3.584-8-8s3.592-8,8-8h16c4.408,0,8,3.584,8,8h16c0-13.232-10.768-24-24-24V32h-16v16 c-13.232,0-24,10.768-24,24s10.768,24,24,24h16c4.408,0,8,3.584,8,8S422.064,112,417.656,112z" fill="#008080"/><path d="M1.656,360c0,22.056,17.944,40,40,40h168v-16h-168c-13.232,0-24-10.768-24-24v-24h192v-16h-208V360z" fill="#008080"/><path d="M17.656,64h224v112h16V40c0-22.056-17.944-40-40-40h-176c-22.056,0-40,17.944-40,40v264h16V64z M17.656,40 c0-13.232,10.768-24,24-24h176c13.232,0,24,10.768,24,24v8h-224V40z" fill="#008080"/><rect x="97.656" y="352" width="64" height="16" fill="#008080"/><path d="M225.656,496h19.312l20.688-20.688l24,24l24-24l24,24l24-24l24,24l24-24l24,24l24-24L478.344,496h19.312V192h-272V496z M241.656,208h240v268.688l-24-24l-24,24l-24-24l-24,24l-24-24l-24,24l-24-24l-24,24l-24-24l-24,24V208z" fill="#008080"/><path d="M465.656,368h-208v64h208V368z M289.656,416h-16v-32h16V416z M321.656,416h-16v-32h16V416z M353.656,416h-16v-32h16V416z M385.656,416h-16v-32h16V416z M417.656,416h-16v-32h16V416z M449.656,416h-16v-32h16V416z" fill="#008080"/><rect x="257.656" y="224" width="16" height="16" fill="#008080"/><rect x="289.656" y="224" width="176" height="16" fill="#008080"/><rect x="449.656" y="320" width="16" height="16" fill="#008080"/><rect x="257.656" y="320" width="176" height="16" fill="#008080"/><rect x="257.656" y="288" width="208" height="16" fill="#008080"/><rect x="257.656" y="256" width="208" height="16" fill="#008080"/></symbol><symbol id="email" viewBox="0 0 512 512"><title>email</title><g> <g> <path d="M486,284c14.336,0,26-11.664,26-26V26c0-14.336-11.664-26-26-26H142c-14.336,0-26,11.664-26,26v76H59.064 c-5.523,0-10,4.477-10,10s4.477,10,10,10H116v28H10c-5.523,0-10,4.477-10,10s4.477,10,10,10h106v58H26c-14.336,0-26,11.664-26,26 v232c0,14.336,11.664,26,26,26h344c14.336,0,26-11.664,26-26v-76h106c5.523,0,10-4.477,10-10s-4.477-10-10-10H396v-28h56.936 c5.523,0,10-4.477,10-10s-4.477-10-10-10H396v-58H486z M486.025,20.001C489.322,20.015,492,22.7,492,26v228.273L371.877,134.15 L486.025,20.001z M457.741,20L329.004,148.737c-4.008,4.008-9.336,6.215-15.004,6.215c-5.668,0-10.997-2.208-15.004-6.215 L170.258,20H457.741z M136,26c0-3.3,2.678-5.985,5.975-5.999L255.763,133.79L136,253.554V26z M116,248v10 c0,14.336,11.664,26,26,26h163.742l-92.737,92.737c-8.273,8.274-21.735,8.274-30.009,0L54.258,248H116z M20,481.554V254 c0-3.3,2.678-5.985,5.974-5.999L139.763,361.79L20,481.554z M37.838,492l116.068-116.067l14.947,14.947 c16.072,16.071,42.222,16.071,58.294,0l14.587-14.587L357.441,492H37.838z M376,482.273L255.877,362.15l78.15-78.15H376V482.273z M153.838,264l116.068-116.067l14.947,14.947c16.072,16.071,42.222,16.071,58.294,0l14.587-14.587L473.441,264H153.838z"/> </g> </g><g> <g> <path d="M496.75,344.93c-1.86-1.86-4.44-2.93-7.07-2.93s-5.21,1.07-7.07,2.93c-1.86,1.86-2.93,4.44-2.93,7.07s1.07,5.21,2.93,7.07 c1.86,1.86,4.44,2.93,7.07,2.93s5.21-1.07,7.07-2.93s2.93-4.44,2.93-7.07S498.61,346.79,496.75,344.93z"/> </g> </g><g> <g> <path d="M29.39,104.93c-1.86-1.86-4.44-2.93-7.07-2.93s-5.21,1.07-7.07,2.93s-2.93,4.44-2.93,7.07s1.07,5.21,2.93,7.07 s4.44,2.93,7.07,2.93s5.21-1.07,7.07-2.93s2.93-4.44,2.93-7.07S31.25,106.79,29.39,104.93z"/> </g> </g></symbol><symbol id="farmer-1" viewBox="0 0 430.142 430.142"><title>farmer-1</title><path id="XMLID_57_" d="M378.017,414.142h-36.253v-11.07c0-14.546-11.534-26.443-25.935-27.04 c4.106-22.375,6.284-47.244,6.331-72.61c0.802-3.76,1.537-7.584,2.22-11.456c0.623,0.273,3.957,1.462,5.004,1.462 c3.108,0,6.065-1.822,7.362-4.862c1.282-3.003,0.58-6.35-1.51-8.594c14.738-9.406,26.047-21.515,34.314-36.738 c0.789-1.453,1.109-3.115,0.914-4.758l-3.405-28.761l2.366-1.61c2.8-1.904,4.097-5.366,3.239-8.642l-11.702-44.664 c-5.196-19.837-25.108-35.377-45.332-35.377h-20.571c-4.418,0-8,3.582-8,8v41.586H225.39v-22.361 c9.796,7.534,20.38,11.459,31.264,11.459c4.418,0,8-3.582,8-8s-3.582-8-8-8c-14.359,0-25.874-10.692-33.004-19.662 c-0.007-0.009-2.265-3.001-6.259-3.021h-0.002c0,0-0.001,0-0.001,0h-19.851c-20.223,0-40.136,15.539-45.333,35.377l-11.701,44.664 c-0.868,3.313,0.469,6.81,3.325,8.699l3.202,2.118c-3.688,8.88-8.819,17.92-15.06,26.431c-3.318,4.523-6.881,8.781-10.594,12.733 l-16.491-84.935l9.173-1.724c5.421-1.017,10.109-4.084,13.202-8.637c3.053-4.493,4.167-9.884,3.14-15.179L118.78,79.13 c-0.842-4.338-5.041-7.165-9.378-6.329c-4.337,0.842-7.17,5.041-6.329,9.378l11.618,59.84c0.283,1.459-0.296,2.593-0.667,3.139 c-0.681,1.001-1.717,1.678-2.921,1.903l-9.269,1.742L89.38,84.654c-0.842-4.338-5.04-7.167-9.378-6.329 c-4.337,0.842-7.171,5.041-6.329,9.378l12.435,64.054l-9.171,1.723c-2.438,0.454-4.885-1.128-5.338-3.464L59.98,90.178 c-0.842-4.339-5.042-7.166-9.378-6.329c-4.337,0.843-7.17,5.041-6.329,9.378l11.619,59.839c1.885,9.713,10.52,16.498,20.169,16.497 c1.264,0,2.545-0.116,3.831-0.357l9.267-1.741l18.371,94.615c-0.456,0.351-0.909,0.721-1.366,1.061 c-3.548,2.634-4.289,7.645-1.656,11.191c1.483,1.998,3.72,3.093,6.024,3.21l4.714,24.281c-16.51,4.039-28.436,11.355-28.436,22.39 c0,0.047,0.317,3.06,0.535,3.852l16.993,86.078H60.873c-4.418,0-8,3.582-8,8s3.582,8,8,8h317.144c4.418,0,8-3.582,8-8 S382.435,414.142,378.017,414.142z M303.059,135.422h12.571c12.856,0,26.528,10.73,29.854,23.432l10.27,39.199l-12.738,8.666 c-3.653,2.485-4.6,7.461-2.115,11.114c1.548,2.275,4.063,3.501,6.622,3.501c1.549,0,3.115-0.449,4.493-1.387l0.131-0.089 l2.121,17.917c-6.604,11.426-15.141,20.498-26.239,27.829c1.464-14.271,2.208-29.126,2.208-44.47v-23.75 c0-15.138-12.057-27.544-27.179-28.335V135.422z M170.685,403.071v11.07h-50.039l-13.825-70.031 c12.014,4.3,28.016,6.331,43.947,6.331c7.593,0,14.995-0.468,22.001-1.391c4.38-0.577,7.463-4.596,6.887-8.977 c-0.577-4.38-4.599-7.463-8.977-6.887c-6.315,0.832-13.015,1.254-19.911,1.254c-28.505,0-44.462-6.764-47.623-10.23 c3.162-3.466,19.119-10.229,47.623-10.229c4.824,0,9.593,0.209,14.174,0.62c4.391,0.404,8.289-2.851,8.684-7.252 c0.396-4.4-2.852-8.288-7.252-8.684c-5.056-0.454-10.306-0.685-15.606-0.685c-6.674,0-13.357,0.362-19.758,1.092l-5.977-30.782 c7.091-6.432,13.828-13.93,19.836-22.12c6.327-8.627,11.672-17.791,15.729-26.916l1.128,0.747c1.359,0.899,2.891,1.329,4.407,1.329 c2.595,0,5.141-1.261,6.679-3.587c2.438-3.685,1.427-8.648-2.258-11.086l-13.125-8.684l10.25-39.124 c3.328-12.701,17-23.432,29.856-23.432h11.854v33.628c-15.119,0.796-27.172,13.199-27.172,28.334l-0.004,22.064 c0,29.044,2.791,57.471,8.076,82.278c-0.007,26.529,2.118,51.468,6.324,74.305C182.215,376.631,170.685,388.527,170.685,403.071z M248.224,414.142h-61.54v-11.07c0-6.104,4.965-11.068,11.068-11.068h8.558c0.015,0,0.03,0.002,0.045,0.002 c0.012,0,0.024-0.002,0.036-0.002h41.832V414.142z M256.224,303.354c-4.418,0-8,3.582-8,8v64.649H212.9 c-4.436-22.883-6.663-48.108-6.609-75.104c0.001-0.573-0.06-1.145-0.18-1.705c-5.166-23.913-7.896-51.488-7.896-79.744l0.004-22.064 c0-6.824,5.704-12.377,12.716-12.377h6.417c0.013,0,0.026,0.002,0.039,0.002s0.026-0.002,0.039-0.002h77.592 c0.013,0,0.026,0.002,0.039,0.002s0.026-0.002,0.039-0.002h6.425c7.011,0,12.715,5.553,12.715,12.377v23.75 c0,16.136-0.843,31.693-2.514,46.538c-1.788-1.04-3.546-2.098-5.255-3.18c-3.732-2.363-8.674-1.253-11.039,2.479 c-2.363,3.732-1.253,8.675,2.48,11.038c3.662,2.319,7.5,4.544,11.475,6.678c-0.894,5.512-1.904,10.916-3.044,16.192 c-0.12,0.555-0.18,1.121-0.18,1.688c0,25.807-2.284,51.036-6.615,73.434h-35.322v-64.649 C264.224,306.936,260.643,303.354,256.224,303.354z M325.764,414.142h-61.54v-22.139h41.771c0.008,0,0.015,0,0.023,0h8.677 c6.103,0,11.068,4.965,11.068,11.068V414.142z M293.209,242.313V207.94c0-4.418-3.582-8-8-8h-57.968c-4.418,0-8,3.582-8,8v34.372 c0,3.354,2.093,6.354,5.242,7.51l28.983,10.644c0.89,0.327,1.824,0.49,2.758,0.49c0.934,0,1.868-0.163,2.758-0.49l28.985-10.644 C291.116,248.666,293.209,245.667,293.209,242.313z M277.209,236.728l-20.985,7.706l-20.983-7.706V215.94h41.968V236.728z M231.598,113.215c4.829,7.992,14.351,13.443,25.288,13.443c11.747,0,21.86-6.289,26.28-15.26 c15.902-9.631,25.666-26.759,25.666-45.396v-12.93c0-4.75-0.637-9.353-1.813-13.737c5.882-1.763,11.603-3.713,17.099-5.853 c4.118-1.603,6.156-6.239,4.554-10.356s-6.241-6.157-10.356-4.554c-5.701,2.219-11.662,4.226-17.813,6.011 C291.069,9.819,274.544,0,255.759,0c-29.265,0-53.074,23.809-53.074,53.073v12.93C202.685,85.912,213.946,104.137,231.598,113.215z M269.545,101.298c0,5.074-5.797,9.36-12.658,9.36c-5.574,0-10.446-2.829-12.078-6.61c-0.001-0.001-0.001-0.002-0.002-0.004 c-0.376-0.872-0.58-1.796-0.58-2.746v-7.429c3.887,1.695,8.21,2.614,12.659,2.614s8.771-0.919,12.658-2.614V101.298z M255.759,16 c11.16,0,21.176,4.964,27.979,12.791c-8.896,1.9-18.042,3.352-27.272,4.303c-11.129,1.147-22.077,1.543-32.66,1.212 C230.258,23.363,242.162,16,255.759,16z M218.685,53.073c0-0.993,0.051-1.974,0.128-2.947c4.001,0.202,8.051,0.305,12.145,0.305 c1.363,0,2.738-0.032,4.11-0.055c0.789,3.589,3.983,6.276,7.809,6.276c4.077,0,7.434-3.052,7.93-6.993 c2.426-0.185,4.859-0.398,7.3-0.649c0.62-0.064,1.237-0.138,1.856-0.206c0.081,4.348,3.625,7.849,7.992,7.849c4.418,0,8-3.582,8-8 v-2.081c5.266-0.896,10.476-1.943,15.601-3.132c0.828,3.074,1.277,6.302,1.277,9.634v12.93c0,8.066-2.641,15.72-7.288,21.988v-7.285 c0-4.418-3.582-8-8-8h-3.458c-2.442,0-4.75,1.115-6.268,3.028c-2.324,2.929-6.513,4.749-10.932,4.749 c-4.419,0-8.608-1.82-10.933-4.749c-1.518-1.913-3.825-3.028-6.267-3.028h-3.459c-4.418,0-8,3.582-8,8V90.74 c-6.016-6.691-9.542-15.45-9.542-24.737V53.073z" data-original="#000000" class="active-path" data-old_color="#000000" fill="#008080"/></symbol></svg>